<svg width="30" height="30" viewBox="0 0 30 30" fill="none" xmlns="http://www.w3.org/2000/svg">
<g clip-path="url(#clip0_789_4133)">
<g clip-path="url(#clip1_789_4133)">
<path d="M3.75 11.625L3.375 9.5625V7.6875C3.4375 7.24999 3.6 6.375 3.75 6.375C3.9 6.375 4.875 6 5.625 5.8125L7.125 5.625C7.5 5.625 7.6875 5.625 9.5625 5.25C9.70958 5.2206 10.6875 5.0625 11.0625 5.0625L10.5 4.3125L11.25 5.0625L12 5.8125L12.1875 6.375C11.9375 6.43751 11.3625 6.5625 11.0625 6.5625H9.5625L8.8125 6.9375V7.5C8.8125 7.65 8.68751 8.93749 8.625 9.5625L8.4375 11.4375L7.6875 11.625H4.125H3.75Z" fill="#FDC040"/>
<path d="M17.625 6.5625L18.375 5.625L20.8125 3.9375L23.625 2.8125C24.5 2.56251 26.475 2.175 27.375 2.625C28.5 3.1875 28.6875 3.375 29.625 5.0625C29.5625 6.375 29.325 9.1125 28.875 9.5625L27.9375 11.25L27.375 11.625H24.5625H20.4375H19.125V10.3125C19.125 10.125 18.9375 8.8125 18.9375 8.625V7.5L18.75 6.75L18.375 6.5625H17.625Z" fill="#FDC040"/>
<path d="M21.5388 5.23219C21.2779 5.49308 21.1343 5.83992 21.1343 6.20884C21.1343 6.57773 21.2779 6.92457 21.5388 7.18545L24.7315 10.3782C24.9924 10.639 25.3392 10.7826 25.708 10.7826C26.077 10.7826 26.4238 10.639 26.6846 10.3782C26.9455 10.1173 27.0891 9.77044 27.0891 9.40156C27.0891 9.03263 26.9455 8.68579 26.6847 8.4249L23.4919 5.23216C22.9535 4.69369 22.0772 4.69384 21.5388 5.23219ZM26.0632 9.04647C26.158 9.14127 26.2102 9.26742 26.2102 9.40156C26.2102 9.53566 26.158 9.66177 26.0631 9.75664C25.9683 9.85148 25.8421 9.90372 25.708 9.90372C25.5739 9.90372 25.4478 9.85148 25.353 9.75664L22.1602 6.56385C22.0654 6.46905 22.0131 6.3429 22.0131 6.20877C22.0131 6.07463 22.0654 5.94856 22.1603 5.85368C22.2582 5.75577 22.3867 5.70683 22.5154 5.70683C22.6439 5.70683 22.7726 5.75577 22.8705 5.85368L26.0632 9.04647Z" fill="#3BB77E"/>
<path d="M29.8932 13.3228C29.7094 12.4149 29.054 11.6868 28.2156 11.3777C30.2947 7.9091 30.5829 4.66089 28.9197 2.99754C28.19 2.26796 27.1333 1.89441 25.8615 1.91785C25.6188 1.9223 25.4257 2.12264 25.4301 2.36529C25.4345 2.60524 25.6304 2.79673 25.8694 2.79673C25.8721 2.79673 25.8749 2.79673 25.8776 2.79667C26.9181 2.77739 27.7335 3.05432 28.2982 3.61901C29.1714 4.49225 29.195 5.81904 29.061 6.77832C28.8715 8.13492 28.2578 9.66481 27.2843 11.2158C24.7496 11.1675 22.204 11.1341 19.6543 11.1158C19.6377 9.61906 19.5451 8.10406 19.3768 6.60534C19.3538 6.40074 19.1918 6.23949 18.987 6.21744C18.856 6.20337 18.7247 6.19085 18.5936 6.17784C20.4488 4.60902 22.4322 3.50398 24.2579 3.03293C24.493 2.97228 24.6343 2.73263 24.5736 2.4976C24.513 2.26257 24.2732 2.12118 24.0383 2.18188C23.3387 2.36242 22.6191 2.62868 21.8938 2.97187C22.035 2.35761 22.1024 1.62124 21.8327 1.07178C21.6703 0.740655 21.4013 0.514886 21.055 0.418849C20.5419 0.276694 19.7448 0.351346 18.8592 1.51477C18.8164 1.57108 18.775 1.6278 18.7351 1.68423C18.7304 1.66753 18.7255 1.65089 18.7204 1.63419C18.5464 1.05514 18.0915 0.0836792 16.9987 0.0836792C16.6191 0.0836792 16.2882 0.234974 16.0416 0.521156C15.7196 0.894821 15.5787 1.47522 15.5282 2.05367C15.1436 1.54787 14.6777 1.14134 14.1738 1.14134C13.8464 1.14134 13.5478 1.3081 13.3332 1.61093C12.7677 2.40865 12.7595 4.13746 13.2848 5.94879C13.1532 5.95044 13.0218 5.9534 12.8903 5.95617C12.0293 4.95147 10.9885 4.26005 10.5332 3.98337V3.02004C10.7395 2.98388 10.8964 2.80429 10.8964 2.5876V1.34683C10.8964 0.678135 10.3524 0.13413 9.6837 0.13413H6.95093C6.28223 0.13413 5.73821 0.678135 5.73821 1.34683V2.5876C5.73821 2.80429 5.89519 2.98388 6.10151 3.02004L6.10118 3.98319C5.50781 4.34356 3.9228 5.40571 3.03571 6.94801C2.85477 7.26129 2.77098 7.62234 2.79366 7.99295C2.8362 8.6684 2.94184 9.98154 3.17148 11.2077C2.99154 11.211 2.81141 11.214 2.63158 11.2175C1.41091 11.2405 0.349034 12.126 0.106799 13.3226C-0.0355897 14.0237 -0.0355897 14.7347 0.10674 15.4355C0.28452 16.315 0.907571 17.0409 1.73049 17.3613C1.77878 18.2559 1.86145 19.5281 1.99681 20.9741C1.63404 22.0015 1.27872 23.0294 0.934057 24.0551C0.6375 24.9387 1.03455 25.9193 1.85817 26.3363C2.17154 26.4945 2.50103 26.6173 2.83825 26.7026C3.15343 27.5963 3.71596 28.3674 4.47818 28.9437C5.31983 29.58 6.32276 29.9164 7.37854 29.9164H22.6215C23.6773 29.9164 24.6802 29.58 25.5219 28.9437C26.2842 28.3673 26.8467 27.5962 27.1619 26.7023C27.5007 26.6163 27.8301 26.4934 28.1421 26.3357C28.9659 25.9194 29.363 24.9387 29.066 24.0545C28.721 23.0282 28.3658 22.0004 28.0033 20.9736C28.1386 19.5278 28.2213 18.2556 28.2696 17.3611C29.0934 17.0399 29.7157 16.3144 29.8932 15.4359C30.0356 14.7347 30.0356 14.0237 29.8932 13.3228ZM18.5412 7.05507C18.6819 8.40455 18.76 9.76512 18.7754 11.1107C15.5157 11.0918 12.2507 11.0971 8.99426 11.1272C9.00922 9.77645 9.08745 8.41029 9.2286 7.055C12.3201 6.74656 15.4495 6.74656 18.5412 7.05507ZM14.0502 2.11919C14.0822 2.07407 14.1296 2.02028 14.1738 2.02028C14.4901 2.02028 15.1538 2.923 15.6258 3.99519C15.7035 4.18516 15.9037 4.29684 16.1076 4.26151C16.3182 4.22495 16.472 4.04225 16.472 3.8285C16.472 3.80176 16.4694 3.77499 16.4645 3.74862C16.2448 2.26362 16.489 1.3483 16.7075 1.09487C16.7874 1.00211 16.8745 0.962558 16.9987 0.962558C18.0119 0.962558 18.0457 2.97838 18.0458 2.99818C18.0458 3.20591 18.1913 3.38509 18.3945 3.42798C18.5981 3.47093 18.8034 3.36552 18.8874 3.17549C19.2016 2.46478 20.0865 1.0627 20.82 1.26591C20.9245 1.29486 20.9913 1.35263 21.0435 1.45904C21.2304 1.84004 21.1304 2.6827 20.803 3.54371C19.6407 4.21186 18.4815 5.06656 17.3823 6.07366C16.3246 5.99611 15.2638 5.95381 14.2028 5.9468C13.5905 4.02706 13.7339 2.56545 14.0502 2.11919ZM9.6543 3.79602H6.98021L6.98051 3.02707H9.65438L9.6543 3.79602ZM6.95093 1.01301H9.6837C9.86775 1.01301 10.0175 1.16272 10.0175 1.34677V2.14796H6.61718V1.34683C6.61718 1.16278 6.76688 1.01301 6.95093 1.01301ZM4.038 11.0599C3.81517 9.87654 3.71232 8.5958 3.67089 7.93854C3.65888 7.74151 3.70242 7.55101 3.79721 7.38691C4.63545 5.92951 6.25549 4.91221 6.65805 4.67491H9.97635C10.2332 4.82607 10.9869 5.29539 11.7167 5.99476C10.7363 6.0392 9.75765 6.11277 8.78299 6.21751C8.5782 6.23949 8.41616 6.40074 8.39321 6.60541C8.22416 8.11107 8.1315 9.6329 8.11552 11.1361C6.76616 11.1504 5.41841 11.1686 4.07351 11.1914C4.05908 11.1485 4.04655 11.1048 4.038 11.0599ZM2.62068 17.5404C2.62437 17.5405 2.628 17.5409 2.6317 17.5409L2.64576 17.5412C2.84282 17.5448 3.03988 17.5481 3.23699 17.5516C3.06085 18.0251 2.88594 18.499 2.71309 18.9737C2.67435 18.4383 2.64412 17.9553 2.62068 17.5404ZM22.6215 29.0374H7.3785C5.82656 29.0374 4.42129 28.1059 3.7908 26.7162C4.36811 26.5723 4.86877 26.1567 5.09858 25.5706C5.35185 24.9251 5.58195 24.3303 5.80208 23.7525C5.88851 23.5257 5.77474 23.2718 5.5479 23.1854C5.32106 23.099 5.06719 23.2127 4.98075 23.4395C4.7616 24.0147 4.53247 24.6068 4.28029 25.2497C4.09819 25.7143 3.60175 25.9803 3.12443 25.8682C2.82454 25.7982 2.53173 25.6918 2.25469 25.5519C1.81809 25.3308 1.60855 24.8075 1.76723 24.3349C2.89397 20.9819 4.12301 17.6052 5.42018 14.2987C5.60258 13.8341 6.09934 13.5678 6.57536 13.6793C6.87821 13.7504 7.17105 13.857 7.4463 13.9965C7.88299 14.2171 8.09235 14.7402 7.93335 15.2133C7.19595 17.4074 6.411 19.6229 5.60017 21.7983C5.51539 22.0257 5.63104 22.2788 5.85847 22.3636C6.08591 22.4484 6.33896 22.3327 6.42375 22.1053C6.97627 20.6228 7.51643 19.1217 8.03827 17.6214C10.3491 17.6465 12.6743 17.6595 15 17.6595C17.3258 17.6595 19.6513 17.6466 21.9622 17.6214C22.89 20.2888 23.8746 22.9539 24.9013 25.5702C25.1312 26.1563 25.6319 26.5718 26.2093 26.7159C25.5789 28.1057 24.1734 29.0374 22.6215 29.0374ZM27.7456 25.5512C27.4692 25.6908 27.1763 25.7975 26.8749 25.8681C26.3987 25.9797 25.9019 25.7136 25.7196 25.2491C24.4251 21.9501 23.196 18.5735 22.0666 15.2128C21.9076 14.7398 22.1171 14.2167 22.5538 13.996C22.83 13.8564 23.123 13.7497 23.4244 13.6791C23.4975 13.662 23.571 13.6537 23.6438 13.6537C24.0457 13.6537 24.4254 13.9048 24.5798 14.2981C25.8742 17.5971 27.1032 20.9738 28.2327 24.3345C28.3916 24.8075 28.1822 25.3305 27.7456 25.5512ZM26.7633 17.5516C26.9601 17.5481 27.1569 17.5448 27.3537 17.5412L27.3694 17.5409C27.3727 17.5408 27.3761 17.5404 27.3794 17.5404C27.3559 17.9551 27.3256 18.438 27.287 18.9731C27.1141 18.4985 26.9393 18.0248 26.7633 17.5516ZM29.0317 15.2613C28.8988 15.9189 28.392 16.4483 27.738 16.6106C27.6147 16.642 27.4844 16.6593 27.3519 16.6621L27.3373 16.6624C27.0369 16.668 26.7366 16.6732 26.4362 16.6783C26.0952 15.7736 25.7492 14.8723 25.3979 13.977C25.0573 13.1087 24.1223 12.6128 23.2239 12.8234C22.8546 12.9099 22.4956 13.0405 22.1572 13.2116C21.3335 13.628 20.9363 14.6087 21.2334 15.4928C21.3736 15.9102 21.5155 16.3278 21.6587 16.7455C17.2364 16.7914 12.7631 16.7914 8.34075 16.7455C8.48408 16.3277 8.62635 15.9101 8.76634 15.4934C9.06371 14.609 8.66647 13.6282 7.84294 13.2122C7.50589 13.0415 7.14698 12.9107 6.77595 12.8236C5.87749 12.6132 4.94284 13.1093 4.60185 13.9776C4.25047 14.8732 3.90458 15.7743 3.56384 16.6784C3.26324 16.6733 2.96259 16.668 2.66199 16.6625L2.64904 16.6622C2.51538 16.6594 2.38518 16.6421 2.25932 16.61C1.60785 16.4483 1.101 15.9189 0.96804 15.261C0.849266 14.6759 0.849266 14.0826 0.9681 13.4973C1.12936 12.7008 1.83591 12.1116 2.64822 12.0963C10.8442 11.939 19.1556 11.939 27.3517 12.0963C28.1639 12.1116 28.8704 12.7008 29.0317 13.4976C29.1506 14.0825 29.1506 14.6758 29.0317 15.2613Z" fill="#3BB77E"/>
<path d="M9.19107 19.1638H9.1614C8.15494 19.1662 7.34277 19.9606 7.31239 20.9724C7.27673 22.1639 7.27673 23.3723 7.31239 24.5638C7.34277 25.5755 8.1549 26.3699 9.16174 26.3723H9.19107C10.1975 26.3699 11.0097 25.5755 11.04 24.5638C11.0757 23.3723 11.0757 22.1639 11.04 20.9724C11.0096 19.9606 10.1975 19.1662 9.19107 19.1638ZM10.1615 24.5374C10.1457 25.0633 9.70939 25.4921 9.1893 25.4933H9.1635C8.643 25.4921 8.20669 25.0632 8.19094 24.5374C8.15573 23.3634 8.15573 22.1728 8.19094 20.9987C8.20669 20.4728 8.643 20.044 9.1638 20.0428H9.18859C9.70909 20.044 10.1457 20.4728 10.1615 20.9987C10.1967 22.1728 10.1967 23.3634 10.1615 24.5374Z" fill="#3BB77E"/>
<path d="M15.0148 19.1638H14.9851C13.9787 19.1662 13.1665 19.9606 13.1361 20.9724C13.1005 22.1639 13.1005 23.3723 13.1361 24.5638C13.1665 25.5755 13.9786 26.3699 14.9855 26.3723H15.0148C16.0213 26.3699 16.8334 25.5755 16.8638 24.5638C16.8994 23.3723 16.8994 22.1639 16.8638 20.9724C16.8334 19.9606 16.0213 19.1662 15.0148 19.1638ZM15.9852 24.5374C15.9694 25.0633 15.5332 25.4921 15.0131 25.4933H14.9873C14.4668 25.4921 14.0305 25.0632 14.0147 24.5374C13.9795 23.3634 13.9795 22.1728 14.0147 20.9987C14.0305 20.4728 14.4668 20.044 14.9876 20.0428H15.0124C15.5329 20.044 15.9694 20.4728 15.9852 20.9987C16.0204 22.1728 16.0204 23.3634 15.9852 24.5374Z" fill="#3BB77E"/>
<path d="M20.8384 19.1638H20.8089C19.8024 19.1662 18.9902 19.9606 18.9599 20.9724C18.9242 22.1639 18.9242 23.3723 18.9599 24.5638C18.9902 25.5755 19.8024 26.3699 20.8092 26.3723H20.8385C21.845 26.3699 22.6572 25.5755 22.6875 24.5638C22.7232 23.3723 22.7232 22.1639 22.6875 20.9724C22.6572 19.9606 21.845 19.1662 20.8384 19.1638ZM21.8089 24.5374C21.7932 25.0633 21.3569 25.4921 20.8368 25.4933H20.811C20.2905 25.4921 19.8543 25.0632 19.8385 24.5374C19.8032 23.3634 19.8032 22.1728 19.8385 20.9987C19.8543 20.4728 20.2905 20.044 20.8113 20.0428H20.8361C21.3566 20.044 21.7932 20.4728 21.809 20.9987C21.8441 22.1728 21.8441 23.3634 21.8089 24.5374Z" fill="#3BB77E"/>
</g>
</g>
<defs>
<clipPath id="clip0_789_4133">
<rect width="30" height="30" fill="white"/>
</clipPath>
<clipPath id="clip1_789_4133">
<rect width="30" height="30" fill="white"/>
</clipPath>
</defs>
</svg>
