<svg width="30" height="30" viewBox="0 0 30 30" fill="none" xmlns="http://www.w3.org/2000/svg">
<g clip-path="url(#clip0_789_4181)">
<g clip-path="url(#clip1_789_4181)">
<path d="M10.875 19.875C14.81 19.875 18 16.8529 18 13.125C18 9.39708 14.81 6.375 10.875 6.375C6.93997 6.375 3.75 9.39708 3.75 13.125C3.75 16.8529 6.93997 19.875 10.875 19.875Z" fill="#FDC040"/>
<path d="M10.9594 20.4342C15.2441 20.4342 18.7299 17.2098 18.7299 13.2464C18.7299 9.28297 15.244 6.05853 10.9594 6.05853C6.67477 6.05853 3.18896 9.28297 3.18896 13.2464C3.18896 17.2098 6.67477 20.4342 10.9594 20.4342ZM10.9594 6.93828C14.759 6.93828 17.8501 9.76807 17.8501 13.2464C17.8501 16.7247 14.7589 19.5545 10.9594 19.5545C7.15987 19.5545 4.06871 16.7247 4.06871 13.2464C4.06871 9.76807 7.15987 6.93828 10.9594 6.93828Z" fill="#3BB77E"/>
<path d="M13.3389 12.1311C13.3389 12.8457 13.9202 13.427 14.6348 13.427C15.3494 13.427 15.9307 12.8457 15.9307 12.1311C15.9307 11.4166 15.3494 10.8352 14.6348 10.8352C13.9202 10.8352 13.3389 11.4166 13.3389 12.1311ZM14.6348 11.715C14.8642 11.715 15.0509 11.9017 15.0509 12.1311C15.0509 12.3606 14.8642 12.5472 14.6348 12.5472C14.4053 12.5472 14.2185 12.3606 14.2185 12.1311C14.2185 11.9017 14.4053 11.715 14.6348 11.715Z" fill="#3BB77E"/>
<path d="M12.5366 11.2808C13.2512 11.2808 13.8325 10.6995 13.8325 9.98495C13.8325 9.27039 13.2512 8.68903 12.5366 8.68903C11.8221 8.68903 11.2407 9.27039 11.2407 9.98495C11.2407 10.6995 11.8221 11.2808 12.5366 11.2808ZM12.5366 9.56874C12.7661 9.56874 12.9527 9.75545 12.9527 9.98488C12.9527 10.2143 12.7661 10.401 12.5366 10.401C12.3072 10.401 12.1205 10.2143 12.1205 9.98488C12.1205 9.75545 12.3072 9.56874 12.5366 9.56874Z" fill="#3BB77E"/>
<path d="M7.28368 13.427C7.99828 13.427 8.57964 12.8457 8.57964 12.1311C8.57964 11.4166 7.99828 10.8352 7.28368 10.8352C6.56916 10.8352 5.98779 11.4166 5.98779 12.1311C5.98779 12.8457 6.56916 13.427 7.28368 13.427ZM7.28368 11.715C7.51318 11.715 7.69989 11.9017 7.69989 12.1311C7.69989 12.3606 7.51318 12.5472 7.28368 12.5472C7.05426 12.5472 6.86758 12.3606 6.86758 12.1311C6.86758 11.9017 7.05426 11.715 7.28368 11.715Z" fill="#3BB77E"/>
<path d="M9.38235 11.2808C10.0969 11.2808 10.6782 10.6995 10.6782 9.98495C10.6782 9.27039 10.0969 8.68903 9.38235 8.68903C8.66779 8.68903 8.08643 9.27039 8.08643 9.98495C8.08643 10.6995 8.66779 11.2808 9.38235 11.2808ZM9.38235 9.56874C9.61178 9.56874 9.79845 9.75545 9.79845 9.98488C9.79845 10.2143 9.61178 10.401 9.38235 10.401C9.15289 10.401 8.96621 10.2143 8.96621 9.98488C8.96621 9.75545 9.15289 9.56874 9.38235 9.56874Z" fill="#3BB77E"/>
<path d="M8.73767 13.0384C8.67654 13.326 8.51319 13.5889 8.26528 13.799C7.70844 14.2707 7.41744 14.9597 7.46683 15.6894C7.54378 16.8259 8.45972 17.7333 9.59739 17.7999C9.97258 17.8217 10.3492 17.7508 10.6868 17.5944C10.8573 17.5153 11.061 17.5153 11.2316 17.5944C11.5292 17.7322 11.8571 17.8037 12.1875 17.8037C12.232 17.8037 12.2765 17.8024 12.321 17.7999C13.4587 17.7332 14.3746 16.8259 14.4515 15.6893C14.5009 14.9596 14.2099 14.2706 13.6531 13.799C13.4052 13.5889 13.2418 13.326 13.1808 13.0384C13.0747 12.5393 12.8102 12.1005 12.4159 11.7695C11.5853 11.0724 10.3329 11.0724 9.5024 11.7695C9.10817 12.1006 8.84375 12.5393 8.73767 13.0384ZM10.0681 12.4433C10.5761 12.0169 11.3422 12.0169 11.8502 12.4433C12.0928 12.6469 12.2553 12.9159 12.3201 13.2213C12.4221 13.7011 12.6863 14.1331 13.0844 14.4702C13.4257 14.7593 13.604 15.182 13.5737 15.6299C13.5266 16.3255 12.9659 16.8808 12.2695 16.9216C12.0357 16.9352 11.8107 16.8931 11.6013 16.7961C11.3972 16.7015 11.1782 16.6543 10.9591 16.6543C10.7401 16.6543 10.5209 16.7016 10.3169 16.7961C10.1076 16.8931 9.88265 16.9353 9.64877 16.9216C8.95232 16.8808 8.39169 16.3255 8.34459 15.63C8.31425 15.182 8.49264 14.7593 8.83393 14.4702C9.23192 14.1331 9.49622 13.7012 9.59818 13.2213C9.66313 12.916 9.82558 12.6469 10.0681 12.4433Z" fill="#3BB77E"/>
<path d="M28.2673 23.5504C29.2016 22.3584 29.7157 20.8755 29.7157 19.356C29.7157 15.6017 26.6613 12.5472 22.9069 12.5472C22.2051 12.5472 21.5193 12.6527 20.8605 12.8605C20.8131 10.6857 20.7004 8.51377 20.5215 6.35348C20.4576 5.58611 20.625 4.83746 21.0058 4.18845C21.5233 3.3058 21.9867 2.10012 21.2552 1.36856C20.9416 1.05525 20.1378 0.601058 16.7917 0.275542C14.703 0.0723754 12.4095 0 10.9595 0C9.5095 0 7.21596 0.0723754 5.12721 0.275601C1.78106 0.601114 0.977299 1.05531 0.663634 1.36874C-0.0678026 2.10012 0.395599 3.3058 0.913136 4.18864C1.29384 4.83754 1.46129 5.58615 1.3973 6.35336C1.37249 6.65003 1.34792 6.96585 1.32012 7.34745C1.3024 7.58974 1.48451 7.80052 1.7268 7.81819C1.96915 7.83596 2.17988 7.65379 2.19753 7.4115C2.22516 7.03312 2.24944 6.72019 2.27401 6.42664C2.35314 5.47755 2.14492 4.54969 1.67202 3.74352C1.64797 3.70247 1.62545 3.66229 1.60305 3.62217C2.93478 3.06141 7.28376 2.69572 10.9595 2.69572C12.3586 2.69572 14.5787 2.76469 16.6137 2.95818C18.8611 3.17191 19.8664 3.43754 20.3146 3.6244C20.2926 3.66375 20.2705 3.70317 20.2469 3.74346C19.774 4.54969 19.5657 5.47747 19.6447 6.42637C20.1008 11.9359 20.1248 17.5219 19.7187 23.0371C18.7749 23.0368 17.8309 23.0443 16.8919 23.0597C16.7714 21.5632 15.5151 20.3825 13.9882 20.3825C12.3818 20.3825 11.0749 21.6893 11.0749 23.2957C11.0749 23.9975 11.3262 24.6667 11.7764 25.1913C11.6638 25.3225 11.5636 25.4627 11.4768 25.6102C8.84556 25.6296 6.18006 25.5011 3.5502 25.227C2.86264 25.1558 2.32275 24.6021 2.26645 23.9101C1.86539 19.0159 1.80387 14.0511 2.08358 9.15356C2.09742 8.91101 1.91202 8.70315 1.6695 8.68927C1.42704 8.67555 1.21912 8.86084 1.20522 9.10335C0.923164 14.0414 0.985219 19.0473 1.38956 23.9816C1.48011 25.0954 2.35067 25.9871 3.45924 26.102C5.94723 26.3613 8.46651 26.4923 10.9605 26.4923C11.0193 26.4923 11.078 26.4914 11.1368 26.4913C11.0964 26.6853 11.0749 26.8846 11.0749 27.0867C11.0749 28.6931 12.3817 29.9999 13.9881 29.9999C15.515 29.9999 16.7713 28.8192 16.8918 27.3228C18.742 27.3531 20.6112 27.3531 22.4609 27.3228C22.5814 28.8192 23.8378 29.9999 25.3647 29.9999C25.8334 29.9999 26.2999 29.8857 26.7137 29.6696C26.9291 29.5572 27.0125 29.2914 26.9001 29.0761C26.7875 28.8607 26.5218 28.7772 26.3065 28.8898C26.0138 29.0426 25.6969 29.1202 25.3647 29.1202C24.2434 29.1202 23.3312 28.208 23.3312 27.0867C23.3312 27.0359 23.3339 26.9804 23.3397 26.9121C23.3502 26.788 23.3076 26.6652 23.2224 26.5743C23.1372 26.4834 23.0176 26.4329 22.893 26.4353C20.7589 26.476 18.5944 26.476 16.4599 26.4353C16.336 26.4329 16.2157 26.4834 16.1304 26.5743C16.0453 26.6652 16.0026 26.788 16.0131 26.9121C16.0189 26.9799 16.0216 27.0354 16.0216 27.0867C16.0216 28.208 15.1094 29.1202 13.9882 29.1202C12.8669 29.1202 11.9547 28.208 11.9547 27.0867C11.9547 26.4846 12.22 25.9164 12.6828 25.528C12.7823 25.4445 12.8398 25.3211 12.8398 25.1912C12.8398 25.0612 12.7824 24.9378 12.6828 24.8542C12.22 24.4659 11.9547 23.8978 11.9547 23.2955C11.9547 22.1743 12.8669 21.2621 13.9882 21.2621C15.1094 21.2621 16.0216 22.1743 16.0216 23.2955C16.0216 23.3469 16.0189 23.4024 16.0131 23.4702C16.0026 23.5943 16.0453 23.7171 16.1304 23.808C16.2157 23.8989 16.3358 23.9497 16.4599 23.9471C18.5944 23.9063 20.7588 23.9063 22.893 23.9471C23.0177 23.9497 23.1372 23.8989 23.2224 23.808C23.3076 23.7171 23.3502 23.5943 23.3397 23.4702C23.3339 23.402 23.3312 23.3464 23.3312 23.2955C23.3312 22.1743 24.2434 21.2621 25.3647 21.2621C26.4862 21.2621 27.3987 22.1743 27.3987 23.2955C27.3987 23.8979 27.1333 24.4659 26.6703 24.8541C26.5706 24.9376 26.513 25.0611 26.513 25.1912C26.513 25.3212 26.5705 25.4447 26.6703 25.5282C27.1333 25.9164 27.3987 26.4844 27.3987 27.0867C27.3987 27.3435 27.3515 27.5937 27.2585 27.8301C27.1696 28.0563 27.2808 28.3116 27.5069 28.4005C27.733 28.4894 27.9883 28.3782 28.0773 28.1522C28.2107 27.8127 28.2785 27.4543 28.2785 27.0868C28.2785 26.3848 28.0271 25.7157 27.5767 25.1912C27.9723 24.7307 28.2142 24.1584 28.2673 23.5504ZM10.9596 1.8159C10.88 1.8159 3.61976 1.82856 1.24757 2.82628C1.12639 2.43554 1.13507 2.14152 1.28569 1.99091C1.40469 1.87197 2.03959 1.45988 5.21241 1.1512C7.26985 0.951086 9.5302 0.879765 10.9595 0.879765C12.3888 0.879765 14.6491 0.951086 16.7065 1.1512C19.8793 1.45988 20.5143 1.87197 20.6331 1.99079C20.7839 2.14152 20.7926 2.43548 20.6715 2.82622C18.2992 1.82862 11.0392 1.8159 10.9596 1.8159ZM25.3648 20.3824C23.8379 20.3824 22.5815 21.5631 22.461 23.0596C21.8427 23.0494 21.2219 23.044 20.6006 23.0406C20.8251 19.9683 20.9177 16.8744 20.8768 13.7838C21.5252 13.5469 22.2067 13.427 22.9069 13.427C26.1762 13.427 28.836 16.0868 28.836 19.356C28.836 20.3716 28.5724 21.3686 28.0823 22.2465C27.6602 21.1572 26.6016 20.3824 25.3648 20.3824Z" fill="#3BB77E"/>
</g>
</g>
<defs>
<clipPath id="clip0_789_4181">
<rect width="30" height="30" fill="white"/>
</clipPath>
<clipPath id="clip1_789_4181">
<rect width="30" height="30" fill="white"/>
</clipPath>
</defs>
</svg>
