<svg width="184" height="40" viewBox="0 0 184 40" fill="none" xmlns="http://www.w3.org/2000/svg">
<g clip-path="url(#clip0_789_12603)">
<path d="M30.6246 19.6183V17.5417C30.6246 14.0607 29.2419 10.7223 26.7805 8.26089C24.319 5.79948 20.9807 4.41667 17.4996 4.41667C14.0187 4.41667 10.6803 5.79948 8.21892 8.26089C5.7575 10.7223 4.3747 14.0607 4.3747 17.5417V19.6183C2.84514 20.2918 1.59336 21.4703 0.828934 22.9566C0.0645064 24.4428 -0.166176 26.1464 0.175507 27.7825C0.51719 29.4184 1.4105 30.8874 2.70588 31.9434C4.00127 32.9994 5.62009 33.5784 7.29136 33.5833H10.208V19H7.29136V17.5417C7.29136 14.8342 8.36687 12.2377 10.2813 10.3233C12.1958 8.40886 14.7923 7.33333 17.4996 7.33333C20.2071 7.33333 22.8036 8.40886 24.7181 10.3233C26.6325 12.2377 27.708 14.8342 27.708 17.5417V19H24.7913V30.6667H18.958V33.5833H27.708C29.3793 33.5784 30.9981 32.9994 32.2935 31.9434C33.5889 30.8874 34.4822 29.4184 34.8239 27.7825C35.1656 26.1464 34.9349 24.4428 34.1704 22.9566C33.406 21.4703 32.1542 20.2918 30.6246 19.6183ZM7.29136 30.6667C6.13104 30.6667 5.01824 30.2057 4.19777 29.3853C3.37729 28.5648 2.91636 27.452 2.91636 26.2917C2.91636 25.1313 3.37729 24.0185 4.19777 23.1981C5.01824 22.3776 6.13104 21.9167 7.29136 21.9167V30.6667ZM27.708 30.6667V21.9167C28.8683 21.9167 29.9811 22.3776 30.8016 23.1981C31.622 24.0185 32.083 25.1313 32.083 26.2917C32.083 27.452 31.622 28.5648 30.8016 29.3853C29.9811 30.2057 28.8683 30.6667 27.708 30.6667Z" fill="#253D4E"/>
</g>
<path d="M51.188 23C50.7027 23 50.304 22.8527 49.992 22.558C49.68 22.246 49.524 21.8647 49.524 21.414V8.31L49.888 8.882L47.99 10.286C47.7473 10.4767 47.444 10.572 47.08 10.572C46.664 10.572 46.3 10.416 45.988 10.104C45.676 9.792 45.52 9.41933 45.52 8.986C45.52 8.43133 45.7887 7.98067 46.326 7.634L50.07 5.138C50.2433 5.01667 50.434 4.93 50.642 4.878C50.8673 4.826 51.0753 4.8 51.266 4.8C51.7687 4.8 52.1673 4.956 52.462 5.268C52.7567 5.56267 52.904 5.93533 52.904 6.386V21.414C52.904 21.8647 52.7393 22.246 52.41 22.558C52.098 22.8527 51.6907 23 51.188 23ZM62.4635 4.462C63.3995 4.462 64.2401 4.66133 64.9855 5.06C65.7481 5.44133 66.3895 5.97 66.9095 6.646C67.4468 7.322 67.8541 8.08467 68.1315 8.934C68.4261 9.766 68.5735 10.6413 68.5735 11.56C68.5735 12.1493 68.5041 12.8687 68.3655 13.718C68.2441 14.5673 68.0188 15.4687 67.6895 16.422C67.3601 17.358 66.9008 18.2767 66.3115 19.178C65.7221 20.062 64.9681 20.8593 64.0495 21.57C63.1481 22.2807 62.0388 22.818 60.7215 23.182C60.5135 23.234 60.3141 23.26 60.1235 23.26C59.7248 23.26 59.3608 23.156 59.0315 22.948C58.7195 22.7227 58.5635 22.3413 58.5635 21.804C58.5635 21.4053 58.6848 21.0673 58.9275 20.79C59.1875 20.5127 59.5255 20.3133 59.9415 20.192C60.7388 19.9493 61.5101 19.5507 62.2555 18.996C63.0181 18.424 63.6768 17.7393 64.2315 16.942C64.7861 16.1273 65.1588 15.2433 65.3495 14.29L66.0515 14.316C65.8261 14.5933 65.5315 14.9053 65.1675 15.252C64.8208 15.5987 64.3875 15.902 63.8675 16.162C63.3648 16.4047 62.7581 16.526 62.0475 16.526C60.9035 16.526 59.9068 16.2833 59.0575 15.798C58.2255 15.2953 57.5755 14.5933 57.1075 13.692C56.6395 12.7733 56.4055 11.7073 56.4055 10.494C56.4055 9.402 56.6741 8.39667 57.2115 7.478C57.7661 6.55933 58.5028 5.83133 59.4215 5.294C60.3401 4.73933 61.3541 4.462 62.4635 4.462ZM62.4635 7.322C61.9088 7.322 61.4061 7.46933 60.9555 7.764C60.5221 8.04133 60.1755 8.42267 59.9155 8.908C59.6555 9.376 59.5255 9.90467 59.5255 10.494C59.5255 11.1353 59.6468 11.6987 59.8895 12.184C60.1321 12.652 60.4701 13.016 60.9035 13.276C61.3541 13.536 61.8741 13.666 62.4635 13.666C63.0181 13.666 63.5121 13.5273 63.9455 13.25C64.3961 12.9727 64.7515 12.5913 65.0115 12.106C65.2715 11.6207 65.4015 11.0833 65.4015 10.494C65.4015 9.88733 65.2715 9.35 65.0115 8.882C64.7515 8.39667 64.3961 8.01533 63.9455 7.738C63.5121 7.46067 63.0181 7.322 62.4635 7.322ZM77.8648 23.26C76.3741 23.26 75.1088 22.87 74.0688 22.09C73.0461 21.2927 72.2661 20.192 71.7288 18.788C71.1915 17.3667 70.9228 15.7373 70.9228 13.9C70.9228 12.0453 71.1915 10.416 71.7288 9.012C72.2661 7.608 73.0461 6.516 74.0688 5.736C75.1088 4.93867 76.3741 4.54 77.8648 4.54C79.3555 4.54 80.6121 4.93867 81.6348 5.736C82.6748 6.516 83.4635 7.608 84.0008 9.012C84.5381 10.416 84.8068 12.0453 84.8068 13.9C84.8068 15.7373 84.5381 17.3667 84.0008 18.788C83.4635 20.192 82.6748 21.2927 81.6348 22.09C80.6121 22.87 79.3555 23.26 77.8648 23.26ZM77.8648 20.14C78.5928 20.14 79.2168 19.9147 79.7368 19.464C80.2741 18.996 80.6901 18.3027 80.9848 17.384C81.2795 16.448 81.4268 15.2867 81.4268 13.9C81.4268 12.496 81.2795 11.3347 80.9848 10.416C80.6901 9.49733 80.2741 8.81267 79.7368 8.362C79.2168 7.894 78.5928 7.66 77.8648 7.66C77.1541 7.66 76.5301 7.894 75.9928 8.362C75.4555 8.81267 75.0395 9.49733 74.7448 10.416C74.4501 11.3347 74.3028 12.496 74.3028 13.9C74.3028 15.2867 74.4501 16.448 74.7448 17.384C75.0395 18.3027 75.4555 18.996 75.9928 19.464C76.5301 19.9147 77.1541 20.14 77.8648 20.14ZM93.8355 23.26C92.3448 23.26 91.0795 22.87 90.0395 22.09C89.0168 21.2927 88.2368 20.192 87.6995 18.788C87.1622 17.3667 86.8935 15.7373 86.8935 13.9C86.8935 12.0453 87.1622 10.416 87.6995 9.012C88.2368 7.608 89.0168 6.516 90.0395 5.736C91.0795 4.93867 92.3448 4.54 93.8355 4.54C95.3262 4.54 96.5828 4.93867 97.6055 5.736C98.6455 6.516 99.4342 7.608 99.9715 9.012C100.509 10.416 100.778 12.0453 100.778 13.9C100.778 15.7373 100.509 17.3667 99.9715 18.788C99.4342 20.192 98.6455 21.2927 97.6055 22.09C96.5828 22.87 95.3262 23.26 93.8355 23.26ZM93.8355 20.14C94.5635 20.14 95.1875 19.9147 95.7075 19.464C96.2448 18.996 96.6608 18.3027 96.9555 17.384C97.2502 16.448 97.3975 15.2867 97.3975 13.9C97.3975 12.496 97.2502 11.3347 96.9555 10.416C96.6608 9.49733 96.2448 8.81267 95.7075 8.362C95.1875 7.894 94.5635 7.66 93.8355 7.66C93.1248 7.66 92.5008 7.894 91.9635 8.362C91.4262 8.81267 91.0102 9.49733 90.7155 10.416C90.4208 11.3347 90.2735 12.496 90.2735 13.9C90.2735 15.2867 90.4208 16.448 90.7155 17.384C91.0102 18.3027 91.4262 18.996 91.9635 19.464C92.5008 19.9147 93.1248 20.14 93.8355 20.14ZM111.86 13.77L111.808 13.172C112.467 13.4667 113.039 13.848 113.524 14.316C114.01 14.784 114.382 15.2953 114.642 15.85C114.902 16.4047 115.032 16.9767 115.032 17.566C115.032 18.554 114.755 19.464 114.2 20.296C113.663 21.1107 112.935 21.7693 112.016 22.272C111.098 22.7573 110.075 23 108.948 23C107.822 23 106.799 22.7573 105.88 22.272C104.962 21.7693 104.225 21.1107 103.67 20.296C103.133 19.464 102.864 18.554 102.864 17.566C102.864 16.7687 103.029 16.084 103.358 15.512C103.705 14.9227 104.13 14.4287 104.632 14.03C105.152 13.6313 105.664 13.302 106.166 13.042L105.958 13.77C105.525 13.5967 105.1 13.354 104.684 13.042C104.286 12.7127 103.956 12.2967 103.696 11.794C103.436 11.2913 103.306 10.702 103.306 10.026C103.306 9.05533 103.558 8.18 104.06 7.4C104.563 6.60267 105.239 5.97 106.088 5.502C106.955 5.034 107.908 4.8 108.948 4.8C110.006 4.8 110.95 5.034 111.782 5.502C112.632 5.97 113.308 6.60267 113.81 7.4C114.313 8.18 114.564 9.05533 114.564 10.026C114.564 10.7713 114.417 11.3953 114.122 11.898C113.828 12.4007 113.472 12.7993 113.056 13.094C112.64 13.3887 112.242 13.614 111.86 13.77ZM106.426 10.078C106.426 10.546 106.53 10.962 106.738 11.326C106.964 11.69 107.267 11.9847 107.648 12.21C108.03 12.418 108.463 12.522 108.948 12.522C109.434 12.522 109.858 12.418 110.222 12.21C110.604 11.9847 110.898 11.69 111.106 11.326C111.332 10.962 111.444 10.546 111.444 10.078C111.444 9.38467 111.202 8.81267 110.716 8.362C110.248 7.894 109.659 7.66 108.948 7.66C108.22 7.66 107.614 7.894 107.128 8.362C106.66 8.81267 106.426 9.38467 106.426 10.078ZM108.948 20.14C109.78 20.14 110.482 19.8887 111.054 19.386C111.626 18.866 111.912 18.242 111.912 17.514C111.912 17.0113 111.782 16.5607 111.522 16.162C111.262 15.7633 110.907 15.4513 110.456 15.226C110.006 14.9833 109.503 14.862 108.948 14.862C108.394 14.862 107.891 14.9833 107.44 15.226C106.99 15.4513 106.634 15.7633 106.374 16.162C106.114 16.5607 105.984 17.0113 105.984 17.514C105.984 18.242 106.27 18.866 106.842 19.386C107.414 19.8887 108.116 20.14 108.948 20.14ZM126.104 13.77L126.052 13.172C126.711 13.4667 127.283 13.848 127.768 14.316C128.254 14.784 128.626 15.2953 128.886 15.85C129.146 16.4047 129.276 16.9767 129.276 17.566C129.276 18.554 128.999 19.464 128.444 20.296C127.907 21.1107 127.179 21.7693 126.26 22.272C125.342 22.7573 124.319 23 123.192 23C122.066 23 121.043 22.7573 120.124 22.272C119.206 21.7693 118.469 21.1107 117.914 20.296C117.377 19.464 117.108 18.554 117.108 17.566C117.108 16.7687 117.273 16.084 117.602 15.512C117.949 14.9227 118.374 14.4287 118.876 14.03C119.396 13.6313 119.908 13.302 120.41 13.042L120.202 13.77C119.769 13.5967 119.344 13.354 118.928 13.042C118.53 12.7127 118.2 12.2967 117.94 11.794C117.68 11.2913 117.55 10.702 117.55 10.026C117.55 9.05533 117.802 8.18 118.304 7.4C118.807 6.60267 119.483 5.97 120.332 5.502C121.199 5.034 122.152 4.8 123.192 4.8C124.25 4.8 125.194 5.034 126.026 5.502C126.876 5.97 127.552 6.60267 128.054 7.4C128.557 8.18 128.808 9.05533 128.808 10.026C128.808 10.7713 128.661 11.3953 128.366 11.898C128.072 12.4007 127.716 12.7993 127.3 13.094C126.884 13.3887 126.486 13.614 126.104 13.77ZM120.67 10.078C120.67 10.546 120.774 10.962 120.982 11.326C121.208 11.69 121.511 11.9847 121.892 12.21C122.274 12.418 122.707 12.522 123.192 12.522C123.678 12.522 124.102 12.418 124.466 12.21C124.848 11.9847 125.142 11.69 125.35 11.326C125.576 10.962 125.688 10.546 125.688 10.078C125.688 9.38467 125.446 8.81267 124.96 8.362C124.492 7.894 123.903 7.66 123.192 7.66C122.464 7.66 121.858 7.894 121.372 8.362C120.904 8.81267 120.67 9.38467 120.67 10.078ZM123.192 20.14C124.024 20.14 124.726 19.8887 125.298 19.386C125.87 18.866 126.156 18.242 126.156 17.514C126.156 17.0113 126.026 16.5607 125.766 16.162C125.506 15.7633 125.151 15.4513 124.7 15.226C124.25 14.9833 123.747 14.862 123.192 14.862C122.638 14.862 122.135 14.9833 121.684 15.226C121.234 15.4513 120.878 15.7633 120.618 16.162C120.358 16.5607 120.228 17.0113 120.228 17.514C120.228 18.242 120.514 18.866 121.086 19.386C121.658 19.8887 122.36 20.14 123.192 20.14ZM140.349 13.77L140.297 13.172C140.955 13.4667 141.527 13.848 142.013 14.316C142.498 14.784 142.871 15.2953 143.131 15.85C143.391 16.4047 143.521 16.9767 143.521 17.566C143.521 18.554 143.243 19.464 142.689 20.296C142.151 21.1107 141.423 21.7693 140.505 22.272C139.586 22.7573 138.563 23 137.437 23C136.31 23 135.287 22.7573 134.369 22.272C133.45 21.7693 132.713 21.1107 132.159 20.296C131.621 19.464 131.353 18.554 131.353 17.566C131.353 16.7687 131.517 16.084 131.847 15.512C132.193 14.9227 132.618 14.4287 133.121 14.03C133.641 13.6313 134.152 13.302 134.655 13.042L134.447 13.77C134.013 13.5967 133.589 13.354 133.173 13.042C132.774 12.7127 132.445 12.2967 132.185 11.794C131.925 11.2913 131.795 10.702 131.795 10.026C131.795 9.05533 132.046 8.18 132.549 7.4C133.051 6.60267 133.727 5.97 134.577 5.502C135.443 5.034 136.397 4.8 137.437 4.8C138.494 4.8 139.439 5.034 140.271 5.502C141.12 5.97 141.796 6.60267 142.299 7.4C142.801 8.18 143.053 9.05533 143.053 10.026C143.053 10.7713 142.905 11.3953 142.611 11.898C142.316 12.4007 141.961 12.7993 141.545 13.094C141.129 13.3887 140.73 13.614 140.349 13.77ZM134.915 10.078C134.915 10.546 135.019 10.962 135.227 11.326C135.452 11.69 135.755 11.9847 136.137 12.21C136.518 12.418 136.951 12.522 137.437 12.522C137.922 12.522 138.347 12.418 138.711 12.21C139.092 11.9847 139.387 11.69 139.595 11.326C139.82 10.962 139.933 10.546 139.933 10.078C139.933 9.38467 139.69 8.81267 139.205 8.362C138.737 7.894 138.147 7.66 137.437 7.66C136.709 7.66 136.102 7.894 135.617 8.362C135.149 8.81267 134.915 9.38467 134.915 10.078ZM137.437 20.14C138.269 20.14 138.971 19.8887 139.543 19.386C140.115 18.866 140.401 18.242 140.401 17.514C140.401 17.0113 140.271 16.5607 140.011 16.162C139.751 15.7633 139.395 15.4513 138.945 15.226C138.494 14.9833 137.991 14.862 137.437 14.862C136.882 14.862 136.379 14.9833 135.929 15.226C135.478 15.4513 135.123 15.7633 134.863 16.162C134.603 16.5607 134.473 17.0113 134.473 17.514C134.473 18.242 134.759 18.866 135.331 19.386C135.903 19.8887 136.605 20.14 137.437 20.14ZM150.745 23C150.259 23 149.861 22.8527 149.549 22.558C149.237 22.246 149.081 21.8647 149.081 21.414V8.31L149.445 8.882L147.547 10.286C147.304 10.4767 147.001 10.572 146.637 10.572C146.221 10.572 145.857 10.416 145.545 10.104C145.233 9.792 145.077 9.41933 145.077 8.986C145.077 8.43133 145.345 7.98067 145.883 7.634L149.627 5.138C149.8 5.01667 149.991 4.93 150.199 4.878C150.424 4.826 150.632 4.8 150.823 4.8C151.325 4.8 151.724 4.956 152.019 5.268C152.313 5.56267 152.461 5.93533 152.461 6.386V21.414C152.461 21.8647 152.296 22.246 151.967 22.558C151.655 22.8527 151.247 23 150.745 23ZM166.57 20.14C166.986 20.14 167.333 20.2787 167.61 20.556C167.887 20.8333 168.026 21.18 168.026 21.596C168.026 21.9947 167.887 22.3327 167.61 22.61C167.333 22.87 166.986 23 166.57 23H157.73C157.279 23 156.924 22.8613 156.664 22.584C156.404 22.3067 156.274 21.9513 156.274 21.518C156.274 21.0847 156.43 20.7033 156.742 20.374L162.41 14.316C163.051 13.6227 163.554 12.912 163.918 12.184C164.299 11.456 164.49 10.8233 164.49 10.286C164.49 9.41933 164.239 8.726 163.736 8.206C163.233 7.66867 162.566 7.4 161.734 7.4C161.405 7.4 161.067 7.478 160.72 7.634C160.373 7.79 160.035 8.00667 159.706 8.284C159.394 8.56133 159.099 8.882 158.822 9.246C158.614 9.52333 158.406 9.69667 158.198 9.766C157.99 9.83533 157.799 9.87 157.626 9.87C157.245 9.87 156.889 9.73133 156.56 9.454C156.248 9.15933 156.092 8.82133 156.092 8.44C156.092 8.14533 156.187 7.85933 156.378 7.582C156.586 7.30467 156.837 7.01867 157.132 6.724C157.565 6.29067 158.051 5.90933 158.588 5.58C159.125 5.25067 159.68 4.99933 160.252 4.826C160.824 4.63533 161.379 4.54 161.916 4.54C163.077 4.54 164.083 4.774 164.932 5.242C165.799 5.69267 166.466 6.34267 166.934 7.192C167.402 8.024 167.636 9.012 167.636 10.156C167.636 11.1093 167.35 12.1753 166.778 13.354C166.223 14.5153 165.469 15.6073 164.516 16.63L161.006 20.374L160.72 20.14H166.57ZM172.377 19.334C172.533 19.334 172.698 19.36 172.871 19.412C173.062 19.464 173.27 19.568 173.495 19.724C173.79 19.9493 174.136 20.1487 174.535 20.322C174.951 20.4953 175.428 20.582 175.965 20.582C176.502 20.582 177.005 20.452 177.473 20.192C177.958 19.9147 178.357 19.5333 178.669 19.048C178.981 18.5453 179.137 17.9473 179.137 17.254C179.137 16.5953 178.998 16.0493 178.721 15.616C178.461 15.1827 178.106 14.8533 177.655 14.628C177.222 14.4027 176.754 14.29 176.251 14.29C175.87 14.29 175.549 14.3247 175.289 14.394C175.046 14.4633 174.804 14.5413 174.561 14.628C174.336 14.6973 174.067 14.732 173.755 14.732C173.356 14.732 173.044 14.5933 172.819 14.316C172.611 14.0387 172.507 13.7093 172.507 13.328C172.507 13.0853 172.55 12.8687 172.637 12.678C172.741 12.4873 172.888 12.2793 173.079 12.054L177.655 7.192L178.357 7.79H171.961C171.545 7.79 171.198 7.65133 170.921 7.374C170.644 7.09667 170.505 6.75 170.505 6.334C170.505 5.93533 170.644 5.606 170.921 5.346C171.198 5.06867 171.545 4.93 171.961 4.93H179.917C180.454 4.93 180.853 5.07733 181.113 5.372C181.39 5.66667 181.529 6.03933 181.529 6.49C181.529 6.71533 181.468 6.94067 181.347 7.166C181.226 7.374 181.078 7.56467 180.905 7.738L176.303 12.678L175.601 11.794C175.792 11.7073 176.052 11.6293 176.381 11.56C176.728 11.4907 177.014 11.456 177.239 11.456C178.262 11.456 179.146 11.7247 179.891 12.262C180.654 12.782 181.234 13.4667 181.633 14.316C182.049 15.148 182.257 16.0493 182.257 17.02C182.257 18.3027 181.971 19.412 181.399 20.348C180.827 21.284 180.021 22.0033 178.981 22.506C177.941 23.0087 176.728 23.26 175.341 23.26C174.7 23.26 174.067 23.182 173.443 23.026C172.819 22.87 172.282 22.662 171.831 22.402C171.45 22.194 171.19 21.9687 171.051 21.726C170.93 21.466 170.869 21.2233 170.869 20.998C170.869 20.5993 171.008 20.2267 171.285 19.88C171.58 19.516 171.944 19.334 172.377 19.334Z" fill="#3BB77E"/>
<path d="M50.922 35.986C51.038 35.986 51.13 36.02 51.198 36.088C51.266 36.156 51.3 36.244 51.3 36.352V37H45.564V36.634C45.564 36.558 45.58 36.48 45.612 36.4C45.644 36.32 45.694 36.246 45.762 36.178L48.516 33.412C48.744 33.18 48.952 32.958 49.14 32.746C49.328 32.53 49.488 32.314 49.62 32.098C49.752 31.882 49.854 31.664 49.926 31.444C49.998 31.22 50.034 30.982 50.034 30.73C50.034 30.478 49.994 30.258 49.914 30.07C49.834 29.878 49.724 29.72 49.584 29.596C49.448 29.472 49.286 29.38 49.098 29.32C48.91 29.256 48.708 29.224 48.492 29.224C48.272 29.224 48.07 29.256 47.886 29.32C47.702 29.384 47.538 29.474 47.394 29.59C47.254 29.702 47.136 29.836 47.04 29.992C46.944 30.148 46.876 30.32 46.836 30.508C46.788 30.648 46.722 30.742 46.638 30.79C46.558 30.834 46.444 30.846 46.296 30.826L45.738 30.73C45.794 30.338 45.902 29.992 46.062 29.692C46.226 29.388 46.43 29.134 46.674 28.93C46.922 28.726 47.204 28.572 47.52 28.468C47.836 28.36 48.178 28.306 48.546 28.306C48.91 28.306 49.25 28.36 49.566 28.468C49.882 28.576 50.156 28.734 50.388 28.942C50.62 29.146 50.802 29.396 50.934 29.692C51.066 29.988 51.132 30.324 51.132 30.7C51.132 31.02 51.084 31.318 50.988 31.594C50.892 31.866 50.762 32.126 50.598 32.374C50.434 32.622 50.244 32.864 50.028 33.1C49.816 33.336 49.59 33.574 49.35 33.814L47.082 36.13C47.242 36.086 47.404 36.052 47.568 36.028C47.732 36 47.89 35.986 48.042 35.986H50.922ZM57.2409 33.898V30.352C57.2409 30.248 57.2449 30.134 57.2529 30.01C57.2609 29.886 57.2729 29.76 57.2889 29.632L54.1569 33.898H57.2409ZM59.4789 33.898V34.51C59.4789 34.574 59.4589 34.628 59.4189 34.672C59.3829 34.716 59.3249 34.738 59.2449 34.738H58.1769V37H57.2409V34.738H53.4249C53.3449 34.738 53.2749 34.716 53.2149 34.672C53.1589 34.624 53.1229 34.566 53.1069 34.498L52.9989 33.952L57.1809 28.402H58.1769V33.898H59.4789ZM62.1559 37.126C62.1039 37.266 62.0219 37.37 61.9099 37.438C61.8019 37.506 61.6899 37.54 61.5739 37.54H61.1239L64.7299 28.558C64.7779 28.43 64.8499 28.332 64.9459 28.264C65.0459 28.196 65.1599 28.162 65.2879 28.162H65.7439L62.1559 37.126ZM73.5337 28.402V28.882C73.5337 29.018 73.5177 29.13 73.4857 29.218C73.4577 29.306 73.4297 29.38 73.4017 29.44L69.8377 36.622C69.7857 36.726 69.7137 36.816 69.6217 36.892C69.5297 36.964 69.4077 37 69.2557 37H68.4877L72.0997 29.908C72.1517 29.808 72.2057 29.716 72.2617 29.632C72.3177 29.548 72.3777 29.468 72.4417 29.392H67.9537C67.8857 29.392 67.8257 29.366 67.7737 29.314C67.7217 29.258 67.6957 29.196 67.6957 29.128V28.402H73.5337ZM84.3749 29.746C84.3389 29.806 84.2989 29.852 84.2549 29.884C84.2149 29.912 84.1649 29.926 84.1049 29.926C84.0369 29.926 83.9569 29.892 83.8649 29.824C83.7729 29.756 83.6569 29.682 83.5169 29.602C83.3809 29.518 83.2149 29.442 83.0189 29.374C82.8269 29.306 82.5929 29.272 82.3169 29.272C82.0569 29.272 81.8269 29.308 81.6269 29.38C81.4309 29.448 81.2649 29.542 81.1289 29.662C80.9969 29.782 80.8969 29.924 80.8289 30.088C80.7609 30.248 80.7269 30.422 80.7269 30.61C80.7269 30.85 80.7849 31.05 80.9009 31.21C81.0209 31.366 81.1769 31.5 81.3689 31.612C81.5649 31.724 81.7849 31.822 82.0289 31.906C82.2769 31.986 82.5289 32.07 82.7849 32.158C83.0449 32.246 83.2969 32.346 83.5409 32.458C83.7889 32.566 84.0089 32.704 84.2009 32.872C84.3969 33.04 84.5529 33.246 84.6689 33.49C84.7889 33.734 84.8489 34.034 84.8489 34.39C84.8489 34.766 84.7849 35.12 84.6569 35.452C84.5289 35.78 84.3409 36.066 84.0929 36.31C83.8489 36.554 83.5469 36.746 83.1869 36.886C82.8309 37.026 82.4249 37.096 81.9689 37.096C81.4089 37.096 80.9009 36.996 80.4449 36.796C79.9889 36.592 79.5989 36.318 79.2749 35.974L79.6109 35.422C79.6429 35.378 79.6809 35.342 79.7249 35.314C79.7729 35.282 79.8249 35.266 79.8809 35.266C79.9329 35.266 79.9909 35.288 80.0549 35.332C80.1229 35.372 80.1989 35.424 80.2829 35.488C80.3669 35.552 80.4629 35.622 80.5709 35.698C80.6789 35.774 80.8009 35.844 80.9369 35.908C81.0769 35.972 81.2349 36.026 81.4109 36.07C81.5869 36.11 81.7849 36.13 82.0049 36.13C82.2809 36.13 82.5269 36.092 82.7429 36.016C82.9589 35.94 83.1409 35.834 83.2889 35.698C83.4409 35.558 83.5569 35.392 83.6369 35.2C83.7169 35.008 83.7569 34.794 83.7569 34.558C83.7569 34.298 83.6969 34.086 83.5769 33.922C83.4609 33.754 83.3069 33.614 83.1149 33.502C82.9229 33.39 82.7029 33.296 82.4549 33.22C82.2069 33.14 81.9549 33.06 81.6989 32.98C81.4429 32.896 81.1909 32.8 80.9429 32.692C80.6949 32.584 80.4749 32.444 80.2829 32.272C80.0909 32.1 79.9349 31.886 79.8149 31.63C79.6989 31.37 79.6409 31.05 79.6409 30.67C79.6409 30.366 79.6989 30.072 79.8149 29.788C79.9349 29.504 80.1069 29.252 80.3309 29.032C80.5589 28.812 80.8369 28.636 81.1649 28.504C81.4969 28.372 81.8769 28.306 82.3049 28.306C82.7849 28.306 83.2209 28.382 83.6129 28.534C84.0089 28.686 84.3569 28.906 84.6569 29.194L84.3749 29.746ZM92.0213 30.922V37H91.3853C91.2333 37 91.1373 36.926 91.0973 36.778L91.0133 36.124C90.7493 36.416 90.4533 36.652 90.1253 36.832C89.7973 37.008 89.4213 37.096 88.9973 37.096C88.6653 37.096 88.3713 37.042 88.1153 36.934C87.8633 36.822 87.6513 36.666 87.4793 36.466C87.3073 36.266 87.1773 36.024 87.0893 35.74C87.0053 35.456 86.9633 35.142 86.9633 34.798V30.922H88.0313V34.798C88.0313 35.258 88.1353 35.614 88.3433 35.866C88.5553 36.118 88.8773 36.244 89.3093 36.244C89.6253 36.244 89.9193 36.17 90.1913 36.022C90.4673 35.87 90.7213 35.662 90.9533 35.398V30.922H92.0213ZM95.6887 35.536C95.8847 35.8 96.0987 35.986 96.3307 36.094C96.5627 36.202 96.8227 36.256 97.1107 36.256C97.6787 36.256 98.1147 36.054 98.4187 35.65C98.7227 35.246 98.8747 34.67 98.8747 33.922C98.8747 33.526 98.8387 33.186 98.7667 32.902C98.6987 32.618 98.5987 32.386 98.4667 32.206C98.3347 32.022 98.1727 31.888 97.9807 31.804C97.7887 31.72 97.5707 31.678 97.3267 31.678C96.9787 31.678 96.6727 31.758 96.4087 31.918C96.1487 32.078 95.9087 32.304 95.6887 32.596V35.536ZM95.6347 31.864C95.8907 31.548 96.1867 31.294 96.5227 31.102C96.8587 30.91 97.2427 30.814 97.6747 30.814C98.0267 30.814 98.3447 30.882 98.6287 31.018C98.9127 31.15 99.1547 31.348 99.3547 31.612C99.5547 31.872 99.7087 32.196 99.8167 32.584C99.9247 32.972 99.9787 33.418 99.9787 33.922C99.9787 34.37 99.9187 34.788 99.7987 35.176C99.6787 35.56 99.5047 35.894 99.2767 36.178C99.0527 36.458 98.7767 36.68 98.4487 36.844C98.1247 37.004 97.7587 37.084 97.3507 37.084C96.9787 37.084 96.6587 37.022 96.3907 36.898C96.1267 36.77 95.8927 36.594 95.6887 36.37V39.058H94.6147V30.922H95.2567C95.4087 30.922 95.5027 30.996 95.5387 31.144L95.6347 31.864ZM103.315 35.536C103.511 35.8 103.725 35.986 103.957 36.094C104.189 36.202 104.449 36.256 104.737 36.256C105.305 36.256 105.741 36.054 106.045 35.65C106.349 35.246 106.501 34.67 106.501 33.922C106.501 33.526 106.465 33.186 106.393 32.902C106.325 32.618 106.225 32.386 106.093 32.206C105.961 32.022 105.799 31.888 105.607 31.804C105.415 31.72 105.197 31.678 104.953 31.678C104.605 31.678 104.299 31.758 104.035 31.918C103.775 32.078 103.535 32.304 103.315 32.596V35.536ZM103.261 31.864C103.517 31.548 103.813 31.294 104.149 31.102C104.485 30.91 104.869 30.814 105.301 30.814C105.653 30.814 105.971 30.882 106.255 31.018C106.539 31.15 106.781 31.348 106.981 31.612C107.181 31.872 107.335 32.196 107.443 32.584C107.551 32.972 107.605 33.418 107.605 33.922C107.605 34.37 107.545 34.788 107.425 35.176C107.305 35.56 107.131 35.894 106.903 36.178C106.679 36.458 106.403 36.68 106.075 36.844C105.751 37.004 105.385 37.084 104.977 37.084C104.605 37.084 104.285 37.022 104.017 36.898C103.753 36.77 103.519 36.594 103.315 36.37V39.058H102.241V30.922H102.883C103.035 30.922 103.129 30.996 103.165 31.144L103.261 31.864ZM112.43 30.826C112.874 30.826 113.274 30.9 113.63 31.048C113.986 31.196 114.29 31.406 114.542 31.678C114.794 31.95 114.986 32.28 115.118 32.668C115.254 33.052 115.322 33.482 115.322 33.958C115.322 34.438 115.254 34.87 115.118 35.254C114.986 35.638 114.794 35.966 114.542 36.238C114.29 36.51 113.986 36.72 113.63 36.868C113.274 37.012 112.874 37.084 112.43 37.084C111.982 37.084 111.578 37.012 111.218 36.868C110.862 36.72 110.558 36.51 110.306 36.238C110.054 35.966 109.86 35.638 109.724 35.254C109.592 34.87 109.526 34.438 109.526 33.958C109.526 33.482 109.592 33.052 109.724 32.668C109.86 32.28 110.054 31.95 110.306 31.678C110.558 31.406 110.862 31.196 111.218 31.048C111.578 30.9 111.982 30.826 112.43 30.826ZM112.43 36.25C113.03 36.25 113.478 36.05 113.774 35.65C114.07 35.246 114.218 34.684 114.218 33.964C114.218 33.24 114.07 32.676 113.774 32.272C113.478 31.868 113.03 31.666 112.43 31.666C112.126 31.666 111.86 31.718 111.632 31.822C111.408 31.926 111.22 32.076 111.068 32.272C110.92 32.468 110.808 32.71 110.732 32.998C110.66 33.282 110.624 33.604 110.624 33.964C110.624 34.684 110.772 35.246 111.068 35.65C111.368 36.05 111.822 36.25 112.43 36.25ZM118.59 32.14C118.782 31.724 119.018 31.4 119.298 31.168C119.578 30.932 119.92 30.814 120.324 30.814C120.452 30.814 120.574 30.828 120.69 30.856C120.81 30.884 120.916 30.928 121.008 30.988L120.93 31.786C120.906 31.886 120.846 31.936 120.75 31.936C120.694 31.936 120.612 31.924 120.504 31.9C120.396 31.876 120.274 31.864 120.138 31.864C119.946 31.864 119.774 31.892 119.622 31.948C119.474 32.004 119.34 32.088 119.22 32.2C119.104 32.308 118.998 32.444 118.902 32.608C118.81 32.768 118.726 32.952 118.65 33.16V37H117.576V30.922H118.188C118.304 30.922 118.384 30.944 118.428 30.988C118.472 31.032 118.502 31.108 118.518 31.216L118.59 32.14ZM124.714 37.096C124.234 37.096 123.864 36.962 123.604 36.694C123.348 36.426 123.22 36.04 123.22 35.536V31.816H122.488C122.424 31.816 122.37 31.798 122.326 31.762C122.282 31.722 122.26 31.662 122.26 31.582V31.156L123.256 31.03L123.502 29.152C123.514 29.092 123.54 29.044 123.58 29.008C123.624 28.968 123.68 28.948 123.748 28.948H124.288V31.042H126.046V31.816H124.288V35.464C124.288 35.72 124.35 35.91 124.474 36.034C124.598 36.158 124.758 36.22 124.954 36.22C125.066 36.22 125.162 36.206 125.242 36.178C125.326 36.146 125.398 36.112 125.458 36.076C125.518 36.04 125.568 36.008 125.608 35.98C125.652 35.948 125.69 35.932 125.722 35.932C125.778 35.932 125.828 35.966 125.872 36.034L126.184 36.544C126 36.716 125.778 36.852 125.518 36.952C125.258 37.048 124.99 37.096 124.714 37.096ZM138.307 35.224C138.371 35.224 138.427 35.25 138.475 35.302L138.937 35.8C138.585 36.208 138.157 36.526 137.653 36.754C137.153 36.982 136.547 37.096 135.835 37.096C135.219 37.096 134.659 36.99 134.155 36.778C133.651 36.562 133.221 36.262 132.865 35.878C132.509 35.49 132.233 35.026 132.037 34.486C131.841 33.946 131.743 33.352 131.743 32.704C131.743 32.056 131.845 31.462 132.049 30.922C132.253 30.382 132.539 29.918 132.907 29.53C133.279 29.142 133.723 28.842 134.239 28.63C134.755 28.414 135.325 28.306 135.949 28.306C136.561 28.306 137.101 28.404 137.569 28.6C138.037 28.796 138.449 29.062 138.805 29.398L138.421 29.932C138.397 29.972 138.365 30.006 138.325 30.034C138.289 30.058 138.239 30.07 138.175 30.07C138.103 30.07 138.015 30.032 137.911 29.956C137.807 29.876 137.671 29.788 137.503 29.692C137.335 29.596 137.125 29.51 136.873 29.434C136.621 29.354 136.311 29.314 135.943 29.314C135.499 29.314 135.093 29.392 134.725 29.548C134.357 29.7 134.039 29.922 133.771 30.214C133.507 30.506 133.301 30.862 133.153 31.282C133.005 31.702 132.931 32.176 132.931 32.704C132.931 33.24 133.007 33.718 133.159 34.138C133.315 34.558 133.525 34.914 133.789 35.206C134.057 35.494 134.371 35.714 134.731 35.866C135.095 36.018 135.487 36.094 135.907 36.094C136.163 36.094 136.393 36.08 136.597 36.052C136.805 36.02 136.995 35.972 137.167 35.908C137.343 35.844 137.505 35.764 137.653 35.668C137.805 35.568 137.955 35.45 138.103 35.314C138.171 35.254 138.239 35.224 138.307 35.224ZM144.885 33.298C144.885 33.05 144.849 32.824 144.777 32.62C144.709 32.412 144.607 32.234 144.471 32.086C144.339 31.934 144.177 31.818 143.985 31.738C143.793 31.654 143.575 31.612 143.331 31.612C142.819 31.612 142.413 31.762 142.113 32.062C141.817 32.358 141.633 32.77 141.561 33.298H144.885ZM145.749 36.148C145.617 36.308 145.459 36.448 145.275 36.568C145.091 36.684 144.893 36.78 144.681 36.856C144.473 36.932 144.257 36.988 144.033 37.024C143.809 37.064 143.587 37.084 143.367 37.084C142.947 37.084 142.559 37.014 142.203 36.874C141.851 36.73 141.545 36.522 141.285 36.25C141.029 35.974 140.829 35.634 140.685 35.23C140.541 34.826 140.469 34.362 140.469 33.838C140.469 33.414 140.533 33.018 140.661 32.65C140.793 32.282 140.981 31.964 141.225 31.696C141.469 31.424 141.767 31.212 142.119 31.06C142.471 30.904 142.867 30.826 143.307 30.826C143.671 30.826 144.007 30.888 144.315 31.012C144.627 31.132 144.895 31.308 145.119 31.54C145.347 31.768 145.525 32.052 145.653 32.392C145.781 32.728 145.845 33.112 145.845 33.544C145.845 33.712 145.827 33.824 145.791 33.88C145.755 33.936 145.687 33.964 145.587 33.964H141.525C141.537 34.348 141.589 34.682 141.681 34.966C141.777 35.25 141.909 35.488 142.077 35.68C142.245 35.868 142.445 36.01 142.677 36.106C142.909 36.198 143.169 36.244 143.457 36.244C143.725 36.244 143.955 36.214 144.147 36.154C144.343 36.09 144.511 36.022 144.651 35.95C144.791 35.878 144.907 35.812 144.999 35.752C145.095 35.688 145.177 35.656 145.245 35.656C145.333 35.656 145.401 35.69 145.449 35.758L145.749 36.148ZM149.065 31.804C149.197 31.656 149.337 31.522 149.485 31.402C149.633 31.282 149.789 31.18 149.953 31.096C150.121 31.008 150.297 30.942 150.481 30.898C150.669 30.85 150.871 30.826 151.087 30.826C151.419 30.826 151.711 30.882 151.963 30.994C152.219 31.102 152.431 31.258 152.599 31.462C152.771 31.662 152.901 31.904 152.989 32.188C153.077 32.472 153.121 32.786 153.121 33.13V37H152.047V33.13C152.047 32.67 151.941 32.314 151.729 32.062C151.521 31.806 151.203 31.678 150.775 31.678C150.459 31.678 150.163 31.754 149.887 31.906C149.615 32.058 149.363 32.264 149.131 32.524V37H148.057V30.922H148.699C148.851 30.922 148.945 30.996 148.981 31.144L149.065 31.804ZM157.432 37.096C156.952 37.096 156.582 36.962 156.322 36.694C156.066 36.426 155.938 36.04 155.938 35.536V31.816H155.206C155.142 31.816 155.088 31.798 155.044 31.762C155 31.722 154.978 31.662 154.978 31.582V31.156L155.974 31.03L156.22 29.152C156.232 29.092 156.258 29.044 156.298 29.008C156.342 28.968 156.398 28.948 156.466 28.948H157.006V31.042H158.764V31.816H157.006V35.464C157.006 35.72 157.068 35.91 157.192 36.034C157.316 36.158 157.476 36.22 157.672 36.22C157.784 36.22 157.88 36.206 157.96 36.178C158.044 36.146 158.116 36.112 158.176 36.076C158.236 36.04 158.286 36.008 158.326 35.98C158.37 35.948 158.408 35.932 158.44 35.932C158.496 35.932 158.546 35.966 158.59 36.034L158.902 36.544C158.718 36.716 158.496 36.852 158.236 36.952C157.976 37.048 157.708 37.096 157.432 37.096ZM164.8 33.298C164.8 33.05 164.764 32.824 164.692 32.62C164.624 32.412 164.522 32.234 164.386 32.086C164.254 31.934 164.092 31.818 163.9 31.738C163.708 31.654 163.49 31.612 163.246 31.612C162.734 31.612 162.328 31.762 162.028 32.062C161.732 32.358 161.548 32.77 161.476 33.298H164.8ZM165.664 36.148C165.532 36.308 165.374 36.448 165.19 36.568C165.006 36.684 164.808 36.78 164.596 36.856C164.388 36.932 164.172 36.988 163.948 37.024C163.724 37.064 163.502 37.084 163.282 37.084C162.862 37.084 162.474 37.014 162.118 36.874C161.766 36.73 161.46 36.522 161.2 36.25C160.944 35.974 160.744 35.634 160.6 35.23C160.456 34.826 160.384 34.362 160.384 33.838C160.384 33.414 160.448 33.018 160.576 32.65C160.708 32.282 160.896 31.964 161.14 31.696C161.384 31.424 161.682 31.212 162.034 31.06C162.386 30.904 162.782 30.826 163.222 30.826C163.586 30.826 163.922 30.888 164.23 31.012C164.542 31.132 164.81 31.308 165.034 31.54C165.262 31.768 165.44 32.052 165.568 32.392C165.696 32.728 165.76 33.112 165.76 33.544C165.76 33.712 165.742 33.824 165.706 33.88C165.67 33.936 165.602 33.964 165.502 33.964H161.44C161.452 34.348 161.504 34.682 161.596 34.966C161.692 35.25 161.824 35.488 161.992 35.68C162.16 35.868 162.36 36.01 162.592 36.106C162.824 36.198 163.084 36.244 163.372 36.244C163.64 36.244 163.87 36.214 164.062 36.154C164.258 36.09 164.426 36.022 164.566 35.95C164.706 35.878 164.822 35.812 164.914 35.752C165.01 35.688 165.092 35.656 165.16 35.656C165.248 35.656 165.316 35.69 165.364 35.758L165.664 36.148ZM168.986 32.14C169.178 31.724 169.414 31.4 169.694 31.168C169.974 30.932 170.316 30.814 170.72 30.814C170.848 30.814 170.97 30.828 171.086 30.856C171.206 30.884 171.312 30.928 171.404 30.988L171.326 31.786C171.302 31.886 171.242 31.936 171.146 31.936C171.09 31.936 171.008 31.924 170.9 31.9C170.792 31.876 170.67 31.864 170.534 31.864C170.342 31.864 170.17 31.892 170.018 31.948C169.87 32.004 169.736 32.088 169.616 32.2C169.5 32.308 169.394 32.444 169.298 32.608C169.206 32.768 169.122 32.952 169.046 33.16V37H167.972V30.922H168.584C168.7 30.922 168.78 30.944 168.824 30.988C168.868 31.032 168.898 31.108 168.914 31.216L168.986 32.14Z" fill="#7E7E7E"/>
<defs>
<clipPath id="clip0_789_12603">
<rect width="35" height="35" fill="white" transform="translate(0 1.5)"/>
</clipPath>
</defs>
</svg>
