<svg width="65" height="12" viewBox="0 0 65 12" fill="none" xmlns="http://www.w3.org/2000/svg">
<g clip-path="url(#clip0_789_10832)">
<path d="M5.784 9H0L0.684 6.864L5.496 6.888L5.76 6.06L0.948 6.084L2.028 2.76C2.184 2.232 2.376 1.848 2.604 1.608C2.772 1.452 2.892 1.368 2.94 1.344C3.276 1.176 3.504 1.056 5.22 1.032H10.104L9.3 3.468H4.512L4.248 4.26L9.036 4.272C8.292 6.516 8.652 5.46 7.86 7.824C7.74 8.208 7.584 8.484 7.416 8.652C7.272 8.844 6.924 9 5.784 9ZM14.4324 9H8.64844L9.33244 6.864L14.1444 6.888L14.4084 6.06L9.59644 6.084L10.6764 2.76C10.8324 2.232 11.0244 1.848 11.2524 1.608C11.4204 1.452 11.5404 1.368 11.5884 1.344C11.9244 1.176 12.1524 1.056 13.8684 1.032H18.7524L17.9484 3.468H13.1604L12.8964 4.26L17.6844 4.272C16.9404 6.516 17.3004 5.46 16.5084 7.824C16.3884 8.208 16.2324 8.484 16.0644 8.652C15.9204 8.844 15.5724 9 14.4324 9ZM23.0809 9H17.2969L17.9809 6.864L22.7929 6.888L23.0569 6.06L18.2449 6.084L19.3249 2.76C19.4809 2.232 19.6729 1.848 19.9009 1.608C20.0689 1.452 20.1889 1.368 20.2369 1.344C20.5729 1.176 20.8009 1.056 22.5169 1.032H27.4009L26.5969 3.468H21.8089L21.5449 4.26L26.3329 4.272C25.5889 6.516 25.9489 5.46 25.1569 7.824C25.0369 8.208 24.8809 8.484 24.7129 8.652C24.5689 8.844 24.2209 9 23.0809 9ZM31.7293 9H25.9453L26.6293 6.864L31.4413 6.888L31.7053 6.06L26.8933 6.084L27.9733 2.76C28.1293 2.232 28.3213 1.848 28.5493 1.608C28.7173 1.452 28.8373 1.368 28.8853 1.344C29.2213 1.176 29.4493 1.056 31.1653 1.032H36.0493L35.2453 3.468H30.4573L30.1933 4.26L34.9813 4.272C34.2373 6.516 34.5973 5.46 33.8053 7.824C33.6853 8.208 33.5293 8.484 33.3613 8.652C33.2173 8.844 32.8693 9 31.7293 9ZM40.3778 9H34.5938L35.2778 6.864L40.0898 6.888L40.3538 6.06L35.5418 6.084L36.6218 2.76C36.7778 2.232 36.9698 1.848 37.1978 1.608C37.3658 1.452 37.4858 1.368 37.5338 1.344C37.8698 1.176 38.0978 1.056 39.8138 1.032H44.6978L43.8938 3.468H39.1058L38.8418 4.26L43.6298 4.272C42.8858 6.516 43.2458 5.46 42.4538 7.824C42.3338 8.208 42.1778 8.484 42.0098 8.652C41.8658 8.844 41.5178 9 40.3778 9Z" fill="#AEAEAE"/>
<g clip-path="url(#clip1_789_10832)">
<path d="M5.784 9H0L0.684 6.864L5.496 6.888L5.76 6.06L0.948 6.084L2.028 2.76C2.184 2.232 2.376 1.848 2.604 1.608C2.772 1.452 2.892 1.368 2.94 1.344C3.276 1.176 3.504 1.056 5.22 1.032H10.104L9.3 3.468H4.512L4.248 4.26L9.036 4.272C8.292 6.516 8.652 5.46 7.86 7.824C7.74 8.208 7.584 8.484 7.416 8.652C7.272 8.844 6.924 9 5.784 9ZM14.4324 9H8.64844L9.33244 6.864L14.1444 6.888L14.4084 6.06L9.59644 6.084L10.6764 2.76C10.8324 2.232 11.0244 1.848 11.2524 1.608C11.4204 1.452 11.5404 1.368 11.5884 1.344C11.9244 1.176 12.1524 1.056 13.8684 1.032H18.7524L17.9484 3.468H13.1604L12.8964 4.26L17.6844 4.272C16.9404 6.516 17.3004 5.46 16.5084 7.824C16.3884 8.208 16.2324 8.484 16.0644 8.652C15.9204 8.844 15.5724 9 14.4324 9ZM23.0809 9H17.2969L17.9809 6.864L22.7929 6.888L23.0569 6.06L18.2449 6.084L19.3249 2.76C19.4809 2.232 19.6729 1.848 19.9009 1.608C20.0689 1.452 20.1889 1.368 20.2369 1.344C20.5729 1.176 20.8009 1.056 22.5169 1.032H27.4009L26.5969 3.468H21.8089L21.5449 4.26L26.3329 4.272C25.5889 6.516 25.9489 5.46 25.1569 7.824C25.0369 8.208 24.8809 8.484 24.7129 8.652C24.5689 8.844 24.2209 9 23.0809 9ZM31.7293 9H25.9453L26.6293 6.864L31.4413 6.888L31.7053 6.06L26.8933 6.084L27.9733 2.76C28.1293 2.232 28.3213 1.848 28.5493 1.608C28.7173 1.452 28.8373 1.368 28.8853 1.344C29.2213 1.176 29.4493 1.056 31.1653 1.032H36.0493L35.2453 3.468H30.4573L30.1933 4.26L34.9813 4.272C34.2373 6.516 34.5973 5.46 33.8053 7.824C33.6853 8.208 33.5293 8.484 33.3613 8.652C33.2173 8.844 32.8693 9 31.7293 9ZM40.3778 9H34.5938L35.2778 6.864L40.0898 6.888L40.3538 6.06L35.5418 6.084L36.6218 2.76C36.7778 2.232 36.9698 1.848 37.1978 1.608C37.3658 1.452 37.4858 1.368 37.5338 1.344C37.8698 1.176 38.0978 1.056 39.8138 1.032H44.6978L43.8938 3.468H39.1058L38.8418 4.26L43.6298 4.272C42.8858 6.516 43.2458 5.46 42.4538 7.824C42.3338 8.208 42.1778 8.484 42.0098 8.652C41.8658 8.844 41.5178 9 40.3778 9Z" fill="#FDC040"/>
</g>
</g>
<defs>
<clipPath id="clip0_789_10832">
<rect width="64.8" height="12" fill="white"/>
</clipPath>
<clipPath id="clip1_789_10832">
<rect width="25.91" height="54" fill="white"/>
</clipPath>
</defs>
</svg>
