<svg width="78" height="26" viewBox="0 0 78 26" fill="none" xmlns="http://www.w3.org/2000/svg">
<g clip-path="url(#clip0_789_10873)">
<path d="M5.784 16H0L0.684 13.864L5.496 13.888L5.76 13.06L0.948 13.084L2.028 9.76C2.184 9.232 2.376 8.848 2.604 8.608C2.772 8.452 2.892 8.368 2.94 8.344C3.276 8.176 3.504 8.056 5.22 8.032H10.104L9.3 10.468H4.512L4.248 11.26L9.036 11.272C8.292 13.516 8.652 12.46 7.86 14.824C7.74 15.208 7.584 15.484 7.416 15.652C7.272 15.844 6.924 16 5.784 16ZM14.4324 16H8.64844L9.33244 13.864L14.1444 13.888L14.4084 13.06L9.59644 13.084L10.6764 9.76C10.8324 9.232 11.0244 8.848 11.2524 8.608C11.4204 8.452 11.5404 8.368 11.5884 8.344C11.9244 8.176 12.1524 8.056 13.8684 8.032H18.7524L17.9484 10.468H13.1604L12.8964 11.26L17.6844 11.272C16.9404 13.516 17.3004 12.46 16.5084 14.824C16.3884 15.208 16.2324 15.484 16.0644 15.652C15.9204 15.844 15.5724 16 14.4324 16ZM23.0809 16H17.2969L17.9809 13.864L22.7929 13.888L23.0569 13.06L18.2449 13.084L19.3249 9.76C19.4809 9.232 19.6729 8.848 19.9009 8.608C20.0689 8.452 20.1889 8.368 20.2369 8.344C20.5729 8.176 20.8009 8.056 22.5169 8.032H27.4009L26.5969 10.468H21.8089L21.5449 11.26L26.3329 11.272C25.5889 13.516 25.9489 12.46 25.1569 14.824C25.0369 15.208 24.8809 15.484 24.7129 15.652C24.5689 15.844 24.2209 16 23.0809 16ZM31.7293 16H25.9453L26.6293 13.864L31.4413 13.888L31.7053 13.06L26.8933 13.084L27.9733 9.76C28.1293 9.232 28.3213 8.848 28.5493 8.608C28.7173 8.452 28.8373 8.368 28.8853 8.344C29.2213 8.176 29.4493 8.056 31.1653 8.032H36.0493L35.2453 10.468H30.4573L30.1933 11.26L34.9813 11.272C34.2373 13.516 34.5973 12.46 33.8053 14.824C33.6853 15.208 33.5293 15.484 33.3613 15.652C33.2173 15.844 32.8693 16 31.7293 16ZM40.3778 16H34.5938L35.2778 13.864L40.0898 13.888L40.3538 13.06L35.5418 13.084L36.6218 9.76C36.7778 9.232 36.9698 8.848 37.1978 8.608C37.3658 8.452 37.4858 8.368 37.5338 8.344C37.8698 8.176 38.0978 8.056 39.8138 8.032H44.6978L43.8938 10.468H39.1058L38.8418 11.26L43.6298 11.272C42.8858 13.516 43.2458 12.46 42.4538 14.824C42.3338 15.208 42.1778 15.484 42.0098 15.652C41.8658 15.844 41.5178 16 40.3778 16Z" fill="#AEAEAE"/>
<g clip-path="url(#clip1_789_10873)">
<path d="M5.784 16H0L0.684 13.864L5.496 13.888L5.76 13.06L0.948 13.084L2.028 9.76C2.184 9.232 2.376 8.848 2.604 8.608C2.772 8.452 2.892 8.368 2.94 8.344C3.276 8.176 3.504 8.056 5.22 8.032H10.104L9.3 10.468H4.512L4.248 11.26L9.036 11.272C8.292 13.516 8.652 12.46 7.86 14.824C7.74 15.208 7.584 15.484 7.416 15.652C7.272 15.844 6.924 16 5.784 16ZM14.4324 16H8.64844L9.33244 13.864L14.1444 13.888L14.4084 13.06L9.59644 13.084L10.6764 9.76C10.8324 9.232 11.0244 8.848 11.2524 8.608C11.4204 8.452 11.5404 8.368 11.5884 8.344C11.9244 8.176 12.1524 8.056 13.8684 8.032H18.7524L17.9484 10.468H13.1604L12.8964 11.26L17.6844 11.272C16.9404 13.516 17.3004 12.46 16.5084 14.824C16.3884 15.208 16.2324 15.484 16.0644 15.652C15.9204 15.844 15.5724 16 14.4324 16ZM23.0809 16H17.2969L17.9809 13.864L22.7929 13.888L23.0569 13.06L18.2449 13.084L19.3249 9.76C19.4809 9.232 19.6729 8.848 19.9009 8.608C20.0689 8.452 20.1889 8.368 20.2369 8.344C20.5729 8.176 20.8009 8.056 22.5169 8.032H27.4009L26.5969 10.468H21.8089L21.5449 11.26L26.3329 11.272C25.5889 13.516 25.9489 12.46 25.1569 14.824C25.0369 15.208 24.8809 15.484 24.7129 15.652C24.5689 15.844 24.2209 16 23.0809 16ZM31.7293 16H25.9453L26.6293 13.864L31.4413 13.888L31.7053 13.06L26.8933 13.084L27.9733 9.76C28.1293 9.232 28.3213 8.848 28.5493 8.608C28.7173 8.452 28.8373 8.368 28.8853 8.344C29.2213 8.176 29.4493 8.056 31.1653 8.032H36.0493L35.2453 10.468H30.4573L30.1933 11.26L34.9813 11.272C34.2373 13.516 34.5973 12.46 33.8053 14.824C33.6853 15.208 33.5293 15.484 33.3613 15.652C33.2173 15.844 32.8693 16 31.7293 16ZM40.3778 16H34.5938L35.2778 13.864L40.0898 13.888L40.3538 13.06L35.5418 13.084L36.6218 9.76C36.7778 9.232 36.9698 8.848 37.1978 8.608C37.3658 8.452 37.4858 8.368 37.5338 8.344C37.8698 8.176 38.0978 8.056 39.8138 8.032H44.6978L43.8938 10.468H39.1058L38.8418 11.26L43.6298 11.272C42.8858 13.516 43.2458 12.46 42.4538 14.824C42.3338 15.208 42.1778 15.484 42.0098 15.652C41.8658 15.844 41.5178 16 40.3778 16Z" fill="#FDC040"/>
</g>
</g>
<path d="M71.2952 12.7075C71.3559 12.2828 71.4729 11.908 71.6462 11.583C71.8195 11.2537 72.0384 10.9785 72.3027 10.7575C72.5714 10.5365 72.8769 10.3697 73.2192 10.257C73.5659 10.14 73.9385 10.0815 74.3372 10.0815C74.7315 10.0815 75.0955 10.1378 75.4292 10.2505C75.7629 10.3632 76.0489 10.5235 76.2872 10.7315C76.5299 10.9395 76.7184 11.1908 76.8527 11.4855C76.987 11.7802 77.0542 12.1073 77.0542 12.467C77.0542 12.7617 77.0152 13.026 76.9372 13.26C76.8635 13.4897 76.7552 13.6912 76.6122 13.8645C76.4735 14.0378 76.3045 14.1852 76.1052 14.3065C75.9059 14.4278 75.6827 14.5275 75.4357 14.6055C76.0424 14.7615 76.4974 15.0302 76.8007 15.4115C77.1084 15.7885 77.2622 16.2608 77.2622 16.8285C77.2622 17.2575 77.1799 17.6432 77.0152 17.9855C76.8549 18.3278 76.6339 18.6203 76.3522 18.863C76.0705 19.1013 75.7412 19.2855 75.3642 19.4155C74.9915 19.5412 74.5907 19.604 74.1617 19.604C73.6677 19.604 73.2452 19.5433 72.8942 19.422C72.5432 19.2963 72.2464 19.1252 72.0037 18.9085C71.761 18.6918 71.5617 18.4362 71.4057 18.1415C71.2497 17.8425 71.1175 17.5197 71.0092 17.173L71.5097 16.965C71.6397 16.9087 71.7654 16.8935 71.8867 16.9195C72.0124 16.9455 72.1034 17.017 72.1597 17.134C72.216 17.2553 72.2854 17.4005 72.3677 17.5695C72.4544 17.7385 72.5714 17.901 72.7187 18.057C72.866 18.213 73.0524 18.3452 73.2777 18.4535C73.5074 18.5618 73.7977 18.616 74.1487 18.616C74.4737 18.616 74.7575 18.564 75.0002 18.46C75.2472 18.3517 75.4509 18.213 75.6112 18.044C75.7759 17.875 75.8994 17.6865 75.9817 17.4785C76.064 17.2705 76.1052 17.0647 76.1052 16.861C76.1052 16.6097 76.0727 16.38 76.0077 16.172C75.9427 15.964 75.8214 15.7842 75.6437 15.6325C75.466 15.4808 75.2212 15.3617 74.9092 15.275C74.6015 15.1883 74.205 15.145 73.7197 15.145V14.3065C74.1184 14.3022 74.4564 14.2588 74.7337 14.1765C75.0154 14.0942 75.2429 13.9815 75.4162 13.8385C75.5939 13.6955 75.7217 13.5243 75.7997 13.325C75.882 13.1257 75.9232 12.9047 75.9232 12.662C75.9232 12.3933 75.8799 12.1593 75.7932 11.96C75.7109 11.7607 75.596 11.596 75.4487 11.466C75.3014 11.336 75.1259 11.2385 74.9222 11.1735C74.7229 11.1085 74.5062 11.076 74.2722 11.076C74.0382 11.076 73.8194 11.1107 73.6157 11.18C73.4164 11.2493 73.2387 11.3468 73.0827 11.4725C72.931 11.5938 72.8032 11.739 72.6992 11.908C72.5952 12.077 72.5215 12.2633 72.4782 12.467C72.4219 12.6187 72.3504 12.7205 72.2637 12.7725C72.1814 12.8202 72.06 12.8332 71.8997 12.8115L71.2952 12.7075Z" fill="#B6B6B6"/>
<defs>
<clipPath id="clip0_789_10873">
<rect width="64.8" height="12" fill="white" transform="translate(0 7)"/>
</clipPath>
<clipPath id="clip1_789_10873">
<rect width="64.8" height="42" fill="white" transform="translate(0 7)"/>
</clipPath>
</defs>
</svg>
