<svg width="24" height="24" viewBox="0 0 24 24" fill="none" xmlns="http://www.w3.org/2000/svg">
<rect width="24" height="24" rx="12" fill="#BCE3C9"/>
<path d="M15.1852 7.402V7.882C15.1852 8.018 15.1692 8.13 15.1372 8.218C15.1092 8.306 15.0812 8.38 15.0532 8.44L11.4892 15.622C11.4372 15.726 11.3652 15.816 11.2732 15.892C11.1812 15.964 11.0592 16 10.9072 16H10.1392L13.7512 8.908C13.8032 8.808 13.8572 8.716 13.9132 8.632C13.9692 8.548 14.0292 8.468 14.0932 8.392H9.60518C9.53718 8.392 9.47718 8.366 9.42518 8.314C9.37318 8.258 9.34718 8.196 9.34718 8.128V7.402H15.1852Z" fill="#253D4E"/>
</svg>
