<svg width="24" height="24" viewBox="0 0 24 24" fill="none" xmlns="http://www.w3.org/2000/svg">
<rect width="24" height="24" rx="12" fill="#BCE3C9"/>
<path d="M11.3176 15.184V16H6.7096V15.184H8.5516V9.322C8.5516 9.146 8.5576 8.968 8.5696 8.788L7.0396 10.102C6.9876 10.146 6.9356 10.174 6.8836 10.186C6.8316 10.194 6.7836 10.194 6.7396 10.186C6.6956 10.178 6.6536 10.162 6.6136 10.138C6.5776 10.114 6.5496 10.088 6.5296 10.06L6.1936 9.598L8.7556 7.384H9.6256V15.184H11.3176ZM16.5505 12.898V9.352C16.5505 9.248 16.5545 9.134 16.5625 9.01C16.5705 8.886 16.5825 8.76 16.5985 8.632L13.4665 12.898H16.5505ZM18.7885 12.898V13.51C18.7885 13.574 18.7685 13.628 18.7285 13.672C18.6925 13.716 18.6345 13.738 18.5545 13.738H17.4865V16H16.5505V13.738H12.7345C12.6545 13.738 12.5845 13.716 12.5245 13.672C12.4685 13.624 12.4325 13.566 12.4165 13.498L12.3085 12.952L16.4905 7.402H17.4865V12.898H18.7885Z" fill="#253D4E"/>
</svg>
