<svg width="24" height="24" viewBox="0 0 24 24" fill="none" xmlns="http://www.w3.org/2000/svg">
<rect width="24" height="24" rx="12" fill="#BCE3C9"/>
<path d="M11.3176 15.184V16H6.7096V15.184H8.5516V9.322C8.5516 9.146 8.5576 8.968 8.5696 8.788L7.0396 10.102C6.9876 10.146 6.9356 10.174 6.8836 10.186C6.8316 10.194 6.7836 10.194 6.7396 10.186C6.6956 10.178 6.6536 10.162 6.6136 10.138C6.5776 10.114 6.5496 10.088 6.5296 10.06L6.1936 9.598L8.7556 7.384H9.6256V15.184H11.3176ZM18.2785 15.184V16H13.6705V15.184H15.5125V9.322C15.5125 9.146 15.5185 8.968 15.5305 8.788L14.0005 10.102C13.9485 10.146 13.8965 10.174 13.8445 10.186C13.7925 10.194 13.7445 10.194 13.7005 10.186C13.6565 10.178 13.6145 10.162 13.5745 10.138C13.5385 10.114 13.5105 10.088 13.4905 10.06L13.1545 9.598L15.7165 7.384H16.5865V15.184H18.2785Z" fill="#253D4E"/>
</svg>
