<svg width="24" height="24" viewBox="0 0 24 24" fill="none" xmlns="http://www.w3.org/2000/svg">
<rect width="24" height="24" rx="12" fill="#BCE3C9"/>
<path d="M12.1672 15.208C12.4552 15.208 12.7152 15.162 12.9472 15.07C13.1832 14.978 13.3832 14.85 13.5472 14.686C13.7152 14.522 13.8432 14.328 13.9312 14.104C14.0232 13.88 14.0692 13.636 14.0692 13.372C14.0692 13.092 14.0252 12.84 13.9372 12.616C13.8492 12.388 13.7232 12.196 13.5592 12.04C13.3992 11.88 13.2072 11.758 12.9832 11.674C12.7592 11.59 12.5132 11.548 12.2452 11.548C11.9572 11.548 11.6972 11.598 11.4652 11.698C11.2332 11.794 11.0352 11.926 10.8712 12.094C10.7112 12.258 10.5872 12.45 10.4992 12.67C10.4152 12.886 10.3732 13.112 10.3732 13.348C10.3732 13.624 10.4132 13.876 10.4932 14.104C10.5732 14.332 10.6892 14.528 10.8412 14.692C10.9972 14.856 11.1852 14.984 11.4052 15.076C11.6292 15.164 11.8832 15.208 12.1672 15.208ZM11.5432 10.624C11.4672 10.72 11.3932 10.814 11.3212 10.906C11.2532 10.994 11.1872 11.082 11.1232 11.17C11.3272 11.03 11.5512 10.922 11.7952 10.846C12.0392 10.77 12.3052 10.732 12.5932 10.732C12.9412 10.732 13.2692 10.79 13.5772 10.906C13.8852 11.018 14.1532 11.184 14.3812 11.404C14.6132 11.62 14.7972 11.888 14.9332 12.208C15.0692 12.524 15.1372 12.886 15.1372 13.294C15.1372 13.69 15.0652 14.058 14.9212 14.398C14.7772 14.738 14.5752 15.034 14.3152 15.286C14.0592 15.538 13.7492 15.736 13.3852 15.88C13.0252 16.024 12.6272 16.096 12.1912 16.096C11.7592 16.096 11.3672 16.028 11.0152 15.892C10.6632 15.752 10.3632 15.556 10.1152 15.304C9.87118 15.048 9.68118 14.74 9.54518 14.38C9.41318 14.016 9.34718 13.61 9.34718 13.162C9.34718 12.786 9.42918 12.386 9.59318 11.962C9.76118 11.534 10.0272 11.078 10.3912 10.594L12.5752 7.66C12.6312 7.588 12.7072 7.528 12.8032 7.48C12.9032 7.428 13.0172 7.402 13.1452 7.402H14.0932L11.5432 10.624Z" fill="#253D4E"/>
</svg>
