<svg width="45" height="8" viewBox="0 0 45 8" fill="none" xmlns="http://www.w3.org/2000/svg">
<path d="M5.784 7.96802H0L0.684 5.83202L5.496 5.85602L5.76 5.02802L0.948 5.05202L2.028 1.72802C2.184 1.20002 2.376 0.816017 2.604 0.576017C2.772 0.420017 2.892 0.336017 2.94 0.312017C3.276 0.144017 3.504 0.0240169 5.22 1.71661e-05H10.104L9.3 2.43602H4.512L4.248 3.22802L9.036 3.24002C8.292 5.48402 8.652 4.42802 7.86 6.79202C7.74 7.17602 7.584 7.45202 7.416 7.62002C7.272 7.81202 6.924 7.96802 5.784 7.96802ZM14.4324 7.96802H8.64844L9.33244 5.83202L14.1444 5.85602L14.4084 5.02802L9.59644 5.05202L10.6764 1.72802C10.8324 1.20002 11.0244 0.816017 11.2524 0.576017C11.4204 0.420017 11.5404 0.336017 11.5884 0.312017C11.9244 0.144017 12.1524 0.0240169 13.8684 1.71661e-05H18.7524L17.9484 2.43602H13.1604L12.8964 3.22802L17.6844 3.24002C16.9404 5.48402 17.3004 4.42802 16.5084 6.79202C16.3884 7.17602 16.2324 7.45202 16.0644 7.62002C15.9204 7.81202 15.5724 7.96802 14.4324 7.96802ZM23.0809 7.96802H17.2969L17.9809 5.83202L22.7929 5.85602L23.0569 5.02802L18.2449 5.05202L19.3249 1.72802C19.4809 1.20002 19.6729 0.816017 19.9009 0.576017C20.0689 0.420017 20.1889 0.336017 20.2369 0.312017C20.5729 0.144017 20.8009 0.0240169 22.5169 1.71661e-05H27.4009L26.5969 2.43602H21.8089L21.5449 3.22802L26.3329 3.24002C25.5889 5.48402 25.9489 4.42802 25.1569 6.79202C25.0369 7.17602 24.8809 7.45202 24.7129 7.62002C24.5689 7.81202 24.2209 7.96802 23.0809 7.96802ZM31.7293 7.96802H25.9453L26.6293 5.83202L31.4413 5.85602L31.7053 5.02802L26.8933 5.05202L27.9733 1.72802C28.1293 1.20002 28.3213 0.816017 28.5493 0.576017C28.7173 0.420017 28.8373 0.336017 28.8853 0.312017C29.2213 0.144017 29.4493 0.0240169 31.1653 1.71661e-05H36.0493L35.2453 2.43602H30.4573L30.1933 3.22802L34.9813 3.24002C34.2373 5.48402 34.5973 4.42802 33.8053 6.79202C33.6853 7.17602 33.5293 7.45202 33.3613 7.62002C33.2173 7.81202 32.8693 7.96802 31.7293 7.96802ZM40.3778 7.96802H34.5938L35.2778 5.83202L40.0898 5.85602L40.3538 5.02802L35.5418 5.05202L36.6218 1.72802C36.7778 1.20002 36.9698 0.816017 37.1978 0.576017C37.3658 0.420017 37.4858 0.336017 37.5338 0.312017C37.8698 0.144017 38.0978 0.0240169 39.8138 1.71661e-05H44.6978L43.8938 2.43602H39.1058L38.8418 3.22802L43.6298 3.24002C42.8858 5.48402 43.2458 4.42802 42.4538 6.79202C42.3338 7.17602 42.1778 7.45202 42.0098 7.62002C41.8658 7.81202 41.5178 7.96802 40.3778 7.96802Z" fill="#AEAEAE"/>
</svg>
