<svg width="26" height="26" viewBox="0 0 26 26" fill="none" xmlns="http://www.w3.org/2000/svg">
<path d="M20.2977 8.38686L21.7146 7.56033C18.649 2.2939 12.0412 0.282014 6.56083 2.94644V0.930145H4.9209V5.84994H9.84069V4.21001H7.74568C12.3845 2.24224 17.7628 4.03197 20.2977 8.38686Z" fill="#253D4E"/>
<path d="M5.33116 21.1635C1.52924 18.0758 0.528578 12.686 2.96884 8.43938L1.54702 7.61942C-1.2363 12.4662 -0.183151 18.6069 4.05611 22.2492H2.0513V23.8892H6.97109V18.9694H5.33116V21.1635Z" fill="#253D4E"/>
<path d="M22.5213 11.2355L19.043 14.7146L20.2024 15.874L21.5963 14.4801C21.0496 19.5603 16.7687 23.4158 11.6592 23.43V25.0699C17.7469 25.0539 22.7971 20.3557 23.2518 14.2849L24.8409 15.874L26.0004 14.7146L22.5213 11.2355Z" fill="#253D4E"/>
</svg>
